<svg width="129" height="45" viewBox="0 0 129 45" fill="none" xmlns="http://www.w3.org/2000/svg">
<g filter="url(#filter0_d_156_31484)">
<path d="M4.32186 29.4032L3.02271 28.6612L3 4.38105L9.13824 0.488159H18.7187H19.6882H23.7371V0.515059L34.4166 0.572303L38.2529 6.80093L23.7371 6.7384V11.5442L27.4811 11.5682V17.881L23.7371 17.857V26.9598L17.5988 23.0669V6.71679H9.13824V25.0326L21.4147 32.2248L32.1742 25.9213L32.1662 17.8483L32.1653 11.5355L38.311 11.5682V17.881L38.3499 29.4864L38.3899 29.5683L21.4145 39.4171L4.32186 29.4032Z" fill="white"/>
</g>
<g filter="url(#filter1_d_156_31484)">
<path d="M114.042 32.5138C112.012 32.5138 110.128 32.1957 108.391 31.5596C106.653 30.899 105.149 29.9692 103.876 28.7703C102.629 27.5715 101.65 26.1646 100.94 24.5498C100.231 22.9105 99.876 21.1121 99.876 19.1548C99.876 17.1974 100.231 15.4113 100.94 13.7965C101.65 12.1572 102.641 10.7381 103.913 9.53918C105.185 8.3403 106.69 7.42278 108.427 6.78663C110.189 6.12602 112.11 5.79572 114.189 5.79572C116.611 5.79572 118.777 6.19942 120.685 7.00684C122.594 7.81425 124.172 8.97644 125.42 10.4934L120.795 14.6773C119.915 13.7231 118.96 13.0135 117.933 12.5486C116.93 12.0593 115.804 11.8146 114.556 11.8146C113.455 11.8146 112.452 11.9859 111.547 12.3284C110.642 12.671 109.871 13.1726 109.235 13.8332C108.599 14.4693 108.097 15.24 107.73 16.1453C107.387 17.0261 107.216 18.0293 107.216 19.1548C107.216 20.2313 107.387 21.2222 107.73 22.1275C108.097 23.0328 108.599 23.8157 109.235 24.4764C109.871 25.1125 110.629 25.6141 111.51 25.9811C112.415 26.3236 113.406 26.4949 114.483 26.4949C115.559 26.4949 116.611 26.3236 117.639 25.9811C118.667 25.6141 119.707 25.0024 120.759 24.1461L124.832 29.2474C123.364 30.2995 121.664 31.1069 119.731 31.6697C117.798 32.2324 115.902 32.5138 114.042 32.5138ZM118.41 28.2932V18.6043H124.832V29.2474L118.41 28.2932Z" fill="white"/>
</g>
<g filter="url(#filter2_d_156_31484)">
<path d="M84.6182 17.5766H96.4725V23.1918H84.6182V17.5766ZM85.132 32H77.8652V6.30952H98.0139V11.9247H85.132V32Z" fill="white"/>
</g>
<g filter="url(#filter3_d_156_31484)">
<path d="M60.0371 32V12.0715H52.1465V6.30952H75.1578V12.0715H67.3039V32H60.0371Z" fill="white"/>
</g>
<defs>
<filter id="filter0_d_156_31484" x="0.378523" y="0.488159" width="40.6326" height="44.1719" filterUnits="userSpaceOnUse" color-interpolation-filters="sRGB">
<feFlood flood-opacity="0" result="BackgroundImageFix"/>
<feColorMatrix in="SourceAlpha" type="matrix" values="0 0 0 0 0 0 0 0 0 0 0 0 0 0 0 0 0 0 127 0" result="hardAlpha"/>
<feOffset dy="2.62148"/>
<feGaussianBlur stdDeviation="1.31074"/>
<feComposite in2="hardAlpha" operator="out"/>
<feColorMatrix type="matrix" values="0 0 0 0 0 0 0 0 0 0 0 0 0 0 0 0 0 0 0.1 0"/>
<feBlend mode="normal" in2="BackgroundImageFix" result="effect1_dropShadow_156_31484"/>
<feBlend mode="normal" in="SourceGraphic" in2="effect1_dropShadow_156_31484" result="shape"/>
</filter>
<filter id="filter1_d_156_31484" x="97.2545" y="5.79572" width="30.7869" height="31.961" filterUnits="userSpaceOnUse" color-interpolation-filters="sRGB">
<feFlood flood-opacity="0" result="BackgroundImageFix"/>
<feColorMatrix in="SourceAlpha" type="matrix" values="0 0 0 0 0 0 0 0 0 0 0 0 0 0 0 0 0 0 127 0" result="hardAlpha"/>
<feOffset dy="2.62148"/>
<feGaussianBlur stdDeviation="1.31074"/>
<feComposite in2="hardAlpha" operator="out"/>
<feColorMatrix type="matrix" values="0 0 0 0 0 0 0 0 0 0 0 0 0 0 0 0 0 0 0.1 0"/>
<feBlend mode="normal" in2="BackgroundImageFix" result="effect1_dropShadow_156_31484"/>
<feBlend mode="normal" in="SourceGraphic" in2="effect1_dropShadow_156_31484" result="shape"/>
</filter>
<filter id="filter2_d_156_31484" x="75.2438" y="6.30952" width="25.3914" height="30.9334" filterUnits="userSpaceOnUse" color-interpolation-filters="sRGB">
<feFlood flood-opacity="0" result="BackgroundImageFix"/>
<feColorMatrix in="SourceAlpha" type="matrix" values="0 0 0 0 0 0 0 0 0 0 0 0 0 0 0 0 0 0 127 0" result="hardAlpha"/>
<feOffset dy="2.62148"/>
<feGaussianBlur stdDeviation="1.31074"/>
<feComposite in2="hardAlpha" operator="out"/>
<feColorMatrix type="matrix" values="0 0 0 0 0 0 0 0 0 0 0 0 0 0 0 0 0 0 0.1 0"/>
<feBlend mode="normal" in2="BackgroundImageFix" result="effect1_dropShadow_156_31484"/>
<feBlend mode="normal" in="SourceGraphic" in2="effect1_dropShadow_156_31484" result="shape"/>
</filter>
<filter id="filter3_d_156_31484" x="49.525" y="6.30952" width="28.2547" height="30.9334" filterUnits="userSpaceOnUse" color-interpolation-filters="sRGB">
<feFlood flood-opacity="0" result="BackgroundImageFix"/>
<feColorMatrix in="SourceAlpha" type="matrix" values="0 0 0 0 0 0 0 0 0 0 0 0 0 0 0 0 0 0 127 0" result="hardAlpha"/>
<feOffset dy="2.62148"/>
<feGaussianBlur stdDeviation="1.31074"/>
<feComposite in2="hardAlpha" operator="out"/>
<feColorMatrix type="matrix" values="0 0 0 0 0 0 0 0 0 0 0 0 0 0 0 0 0 0 0.1 0"/>
<feBlend mode="normal" in2="BackgroundImageFix" result="effect1_dropShadow_156_31484"/>
<feBlend mode="normal" in="SourceGraphic" in2="effect1_dropShadow_156_31484" result="shape"/>
</filter>
</defs>
</svg>
