<svg width="218" height="72" viewBox="0 0 218 72" fill="none" xmlns="http://www.w3.org/2000/svg">
<g clip-path="url(#clip0_169_48919)">
<path d="M207.519 0H10.4806C4.69234 0 0 4.89061 0 10.9235V60.1888C0 66.2217 4.69234 71.1123 10.4806 71.1123H207.519C213.308 71.1123 218 66.2217 218 60.1888V10.9235C218 4.89061 213.308 0 207.519 0Z" fill="#FFEF11"/>
<path d="M53.2642 44.0981C52.9595 44.8863 52.6719 45.7009 52.3334 46.4924C51.2249 49.0885 49.6913 51.398 47.8742 53.5047C47.0978 54.4042 46.1956 55.1494 45.0882 55.5827C43.9142 56.0412 42.7307 55.9905 41.5577 55.6146C40.7464 55.3545 39.9563 55.0248 39.1514 54.7404C38.0377 54.3458 36.8975 54.1055 35.7129 54.1727C34.6351 54.2344 33.5996 54.499 32.5938 54.8948C31.662 55.2619 30.7354 55.6367 29.7539 55.8494C28.2583 56.1724 26.9468 55.759 25.7516 54.8308C24.5278 53.8806 23.5749 52.6624 22.6568 51.409C21.396 49.6882 20.3204 47.8539 19.4869 45.8685C18.517 43.559 17.7999 41.1679 17.4593 38.6699C17.0796 35.8886 17.0881 33.114 17.9342 30.4109C18.9348 27.2118 20.7868 24.7293 23.7166 23.2003C25.2852 22.3823 26.9489 21.9887 28.7025 22.0913C29.8448 22.1585 30.9247 22.5355 31.9972 22.9247C32.8836 23.2466 33.7773 23.5475 34.6626 23.8749C35.3924 24.1439 36.0799 23.9752 36.7748 23.7272C38.0081 23.2873 39.2392 22.8376 40.4841 22.4352C41.9099 21.9744 43.3632 21.8355 44.8566 22.0703C46.3659 22.3062 47.798 22.7384 49.1212 23.5398C50.31 24.2596 51.2905 25.2154 52.0996 26.417C48.7827 28.5093 47.0767 31.5265 47.3538 35.5976C47.6299 39.6588 49.815 42.3354 53.2631 44.0959L53.2642 44.0981Z" fill="#070D1E"/>
<path d="M44.1985 11.4143C44.1985 12.0195 44.2419 12.6126 44.1911 13.1958C44.0134 15.2374 43.1599 16.9813 41.9076 18.5225C40.9927 19.648 39.9381 20.6082 38.6488 21.2519C37.5985 21.7767 36.4933 22.0258 35.3034 21.9222C35.1976 21.3071 35.2251 20.6864 35.3076 20.068C35.6006 17.8787 36.5726 16.0355 38.011 14.4503C38.9545 13.4096 40.1074 12.6765 41.3692 12.1209C42.1963 11.7571 43.0499 11.5047 43.9447 11.4165C44.0166 11.4099 44.0896 11.4165 44.1985 11.4165V11.4143Z" fill="#070D1E"/>
<path d="M63.9141 28.3104V15.1006H68.2802C69.266 15.1006 70.018 15.1634 70.5362 15.2902C71.2629 15.4644 71.8816 15.7797 72.3946 16.236C73.0631 16.8247 73.5633 17.5776 73.8944 18.4937C74.2255 19.4098 74.3915 20.457 74.3915 21.6344C74.3915 22.6376 74.2794 23.5272 74.0541 24.301C73.8288 25.076 73.5411 25.7176 73.19 26.2247C72.8388 26.7318 72.4538 27.132 72.036 27.423C71.6183 27.714 71.1137 27.9356 70.5236 28.0855C69.9323 28.2354 69.2543 28.3104 68.4875 28.3104H63.9141ZM65.5916 26.7516H68.2971C69.1327 26.7516 69.7885 26.6701 70.2644 26.508C70.7404 26.346 71.119 26.1178 71.4014 25.8234C71.7991 25.4089 72.109 24.8522 72.3311 24.1522C72.5533 23.4522 72.6643 22.6034 72.6643 21.6068C72.6643 20.2255 72.4464 19.1629 72.0117 18.421C71.577 17.6791 71.0482 17.1819 70.4252 16.9294C69.9757 16.7497 69.2522 16.6594 68.2548 16.6594H65.5916V26.7516Z" fill="#070D1E"/>
<path d="M75.9229 23.5254C75.9229 21.7528 76.3957 20.441 77.3413 19.5877C78.1314 18.8789 79.0939 18.5239 80.2288 18.5239C81.4906 18.5239 82.5229 18.955 83.3236 19.817C84.1242 20.6791 84.5251 21.8696 84.5251 23.3898C84.5251 24.6212 84.3474 25.5902 83.9931 26.2957C83.6388 27.0012 83.1226 27.5502 82.4457 27.9405C81.7688 28.3307 81.0295 28.5258 80.2277 28.5258C78.9426 28.5258 77.904 28.0959 77.1107 27.2371C76.3185 26.3784 75.9219 25.1404 75.9219 23.5243L75.9229 23.5254ZM77.5222 23.5254C77.5222 24.7513 77.7781 25.6684 78.2911 26.2781C78.8041 26.8877 79.4493 27.193 80.2277 27.193C81.0062 27.193 81.6429 26.8866 82.1559 26.2737C82.6689 25.6607 82.9248 24.727 82.9248 23.4714C82.9248 22.2875 82.6668 21.3912 82.1506 20.7816C81.6344 20.172 80.9935 19.8666 80.2267 19.8666C79.4598 19.8666 78.803 20.1698 78.29 20.7772C77.7771 21.3846 77.5211 22.2996 77.5211 23.5254H77.5222Z" fill="#070D1E"/>
<path d="M88.0447 28.3095L85.2344 18.7397H86.8421L88.3027 24.2638L88.8474 26.3186C88.8707 26.2161 89.0294 25.5591 89.3234 24.3453L90.7841 18.7408H92.3833L93.7583 24.2913L94.2163 26.1202L94.744 24.2726L96.3179 18.7397H97.8304L94.9598 28.3095H93.3426L91.8819 22.5782L91.5276 20.9478L89.6693 28.3095H88.0436H88.0447Z" fill="#070D1E"/>
<path d="M99.1367 28.3097V18.74H100.537V20.1003C101.212 19.0487 102.186 18.5239 103.459 18.5239C104.013 18.5239 104.521 18.6276 104.986 18.8348C105.45 19.042 105.797 19.3143 106.028 19.6506C106.258 19.9868 106.42 20.3869 106.512 20.8488C106.569 21.1487 106.599 21.6745 106.599 22.4252V28.3097H105.043V22.4892C105.043 21.8289 104.983 21.3339 104.861 21.0065C104.74 20.6791 104.526 20.4178 104.217 20.2227C103.908 20.0276 103.547 19.9295 103.132 19.9295C102.468 19.9295 101.896 20.1488 101.415 20.5876C100.934 21.0263 100.693 21.8586 100.693 23.0834V28.3097H99.1367Z" fill="#070D1E"/>
<path d="M108.949 28.3104V15.1006H110.505V28.3104H108.949Z" fill="#070D1E"/>
<path d="M112.337 23.5254C112.337 21.7528 112.81 20.441 113.755 19.5877C114.545 18.8789 115.508 18.5239 116.643 18.5239C117.905 18.5239 118.937 18.955 119.738 19.817C120.538 20.6791 120.939 21.8696 120.939 23.3898C120.939 24.6212 120.761 25.5902 120.407 26.2957C120.053 27.0012 119.537 27.5502 118.86 27.9405C118.183 28.3307 117.444 28.5258 116.642 28.5258C115.357 28.5258 114.318 28.0959 113.525 27.2371C112.733 26.3784 112.336 25.1404 112.336 23.5243L112.337 23.5254ZM113.936 23.5254C113.936 24.7513 114.192 25.6684 114.705 26.2781C115.218 26.8877 115.863 27.193 116.642 27.193C117.42 27.193 118.057 26.8866 118.57 26.2737C119.083 25.6607 119.339 24.727 119.339 23.4714C119.339 22.2875 119.081 21.3912 118.565 20.7816C118.049 20.172 117.408 19.8666 116.641 19.8666C115.874 19.8666 115.217 20.1698 114.704 20.7772C114.191 21.3835 113.935 22.2996 113.935 23.5254H113.936Z" fill="#070D1E"/>
<path d="M128.758 27.1313C128.181 27.6417 127.627 28.0022 127.093 28.2127C126.56 28.4233 125.988 28.528 125.376 28.528C124.367 28.528 123.592 28.2712 123.051 27.7575C122.509 27.2437 122.238 26.5878 122.238 25.7886C122.238 25.3201 122.341 24.8924 122.545 24.5043C122.749 24.1174 123.018 23.8065 123.349 23.5717C123.68 23.3369 124.053 23.1605 124.469 23.0404C124.775 22.9566 125.236 22.875 125.852 22.7967C127.109 22.6402 128.034 22.4539 128.628 22.2378C128.633 22.0152 128.636 21.8741 128.636 21.8145C128.636 21.1542 128.489 20.6879 128.195 20.4178C127.797 20.0518 127.206 19.8677 126.422 19.8677C125.691 19.8677 125.15 20.0011 124.801 20.269C124.452 20.5358 124.194 21.0098 124.027 21.6878L122.505 21.4717C122.643 20.7926 122.871 20.2447 123.188 19.8269C123.505 19.4091 123.963 19.0883 124.563 18.8624C125.163 18.6375 125.857 18.5239 126.647 18.5239C127.437 18.5239 128.067 18.6198 128.557 18.8127C129.047 19.0046 129.407 19.2471 129.638 19.5381C129.868 19.8291 130.03 20.1973 130.122 20.6416C130.174 20.9183 130.201 21.4166 130.201 22.1375V24.3004C130.201 25.8084 130.233 26.762 130.3 27.1611C130.367 27.5601 130.498 27.9438 130.693 28.3097H129.068C128.906 27.9735 128.802 27.58 128.757 27.1291L128.758 27.1313ZM128.628 23.5089C128.063 23.7492 127.216 23.9531 126.086 24.1218C125.446 24.2177 124.994 24.3257 124.729 24.4459C124.464 24.5661 124.26 24.7413 124.116 24.9728C123.972 25.2043 123.9 25.4612 123.9 25.7434C123.9 26.1755 124.057 26.536 124.371 26.8248C124.685 27.1137 125.145 27.257 125.75 27.257C126.355 27.257 126.883 27.1203 127.349 26.8469C127.815 26.5735 128.159 26.1998 128.378 25.7247C128.545 25.3587 128.629 24.8174 128.629 24.1031V23.5089H128.628Z" fill="#070D1E"/>
<path d="M138.566 28.3095V27.1024C137.985 28.0516 137.128 28.5256 135.998 28.5256C135.266 28.5256 134.594 28.3151 133.979 27.8951C133.366 27.475 132.89 26.8875 132.552 26.1335C132.215 25.3794 132.047 24.513 132.047 23.534C132.047 22.5551 132.199 21.7118 132.505 20.9346C132.811 20.1564 133.269 19.56 133.88 19.1455C134.491 18.731 135.173 18.5237 135.929 18.5237C136.482 18.5237 136.975 18.645 137.407 18.8886C137.84 19.1322 138.191 19.4486 138.462 19.8389V15.0986H140.009V28.3084H138.565L138.566 28.3095ZM133.647 23.534C133.647 24.7599 133.895 25.676 134.391 26.2823C134.887 26.8886 135.472 27.1928 136.145 27.1928C136.819 27.1928 137.403 26.9029 137.879 26.3231C138.355 25.7432 138.592 24.8591 138.592 23.6696C138.592 22.36 138.35 21.3987 137.865 20.7858C137.381 20.1729 136.784 19.8664 136.076 19.8664C135.367 19.8664 134.806 20.1608 134.342 20.7494C133.878 21.3381 133.646 22.2663 133.646 23.534H133.647Z" fill="#070D1E"/>
<path d="M146.798 23.5254C146.798 21.7528 147.271 20.441 148.216 19.5877C149.006 18.8789 149.969 18.5239 151.104 18.5239C152.366 18.5239 153.398 18.955 154.199 19.817C154.999 20.6791 155.4 21.8696 155.4 23.3898C155.4 24.6212 155.222 25.5902 154.868 26.2957C154.514 27.0012 153.998 27.5502 153.321 27.9405C152.644 28.3307 151.904 28.5258 151.103 28.5258C149.818 28.5258 148.779 28.0959 147.986 27.2371C147.194 26.3784 146.797 25.1404 146.797 23.5243L146.798 23.5254ZM148.397 23.5254C148.397 24.7513 148.654 25.6684 149.166 26.2781C149.678 26.8877 150.324 27.193 151.103 27.193C151.881 27.193 152.518 26.8866 153.031 26.2737C153.544 25.6607 153.8 24.727 153.8 23.4714C153.8 22.2875 153.542 21.3912 153.026 20.7816C152.509 20.172 151.868 19.8666 151.102 19.8666C150.335 19.8666 149.678 20.1698 149.165 20.7772C148.652 21.3846 148.396 22.2996 148.396 23.5254H148.397Z" fill="#070D1E"/>
<path d="M157.223 28.3097V18.74H158.623V20.1003C159.298 19.0487 160.272 18.5239 161.545 18.5239C162.099 18.5239 162.607 18.6276 163.072 18.8348C163.536 19.042 163.883 19.3143 164.113 19.6506C164.344 19.9868 164.506 20.3869 164.598 20.8488C164.656 21.1487 164.685 21.6745 164.685 22.4252V28.3097H163.129V22.4892C163.129 21.8289 163.068 21.3339 162.947 21.0065C162.826 20.6791 162.612 20.4178 162.303 20.2227C161.994 20.0276 161.633 19.9295 161.218 19.9295C160.554 19.9295 159.982 20.1488 159.501 20.5876C159.02 21.0263 158.779 21.8586 158.779 23.0834V28.3097H157.223Z" fill="#070D1E"/>
<path d="M175.39 26.8578L175.615 28.2909C175.177 28.3868 174.785 28.4353 174.439 28.4353C173.874 28.4353 173.436 28.3427 173.125 28.1564C172.814 27.9701 172.595 27.7254 172.468 27.4222C172.341 27.1191 172.278 26.4808 172.278 25.5074V20.0021H171.137V18.741H172.278V16.3709L173.825 15.3975V18.741H175.39V20.0021H173.825V25.5978C173.825 26.0608 173.853 26.3573 173.908 26.4896C173.963 26.6219 174.052 26.7266 174.175 26.8049C174.299 26.8832 174.477 26.9217 174.707 26.9217C174.88 26.9217 175.108 26.9008 175.391 26.8589L175.39 26.8578Z" fill="#070D1E"/>
<path d="M176.91 28.3104V15.1006H178.466V19.8408C179.193 18.9633 180.109 18.5257 181.215 18.5257C181.895 18.5257 182.486 18.6657 182.988 18.9446C183.489 19.2235 183.848 19.6104 184.064 20.1021C184.28 20.5948 184.389 21.3092 184.389 22.2462V28.3104H182.833V22.2462C182.833 21.4349 182.665 20.8451 182.328 20.4758C181.99 20.1065 181.513 19.9213 180.897 19.9213C180.435 19.9213 180.002 20.0459 179.596 20.295C179.189 20.5441 178.9 20.8826 178.727 21.3092C178.555 21.7358 178.468 22.3245 178.468 23.0752V28.3104H176.912H176.91Z" fill="#070D1E"/>
<path d="M193.042 25.2294L194.65 25.4367C194.396 26.4156 193.927 27.1763 193.241 27.7164C192.556 28.2566 191.679 28.5278 190.613 28.5278C189.27 28.5278 188.206 28.0967 187.419 27.2347C186.632 26.3726 186.238 25.1633 186.238 23.6078C186.238 22.0524 186.636 20.7483 187.431 19.8598C188.227 18.9712 189.258 18.5259 190.526 18.5259C191.794 18.5259 192.757 18.9613 193.535 19.8322C194.314 20.7031 194.702 21.9289 194.702 23.5086C194.702 23.6045 194.699 23.749 194.693 23.9408H187.846C187.904 24.9924 188.189 25.7972 188.702 26.3561C189.215 26.915 189.855 27.1939 190.621 27.1939C191.191 27.1939 191.679 27.0374 192.082 26.7254C192.485 26.4134 192.805 25.914 193.041 25.2294H193.042ZM187.933 22.6069H193.059C192.991 21.8022 192.794 21.198 192.471 20.7957C191.975 20.1706 191.333 19.8587 190.543 19.8587C189.828 19.8587 189.227 20.1078 188.741 20.6061C188.254 21.1043 187.985 21.7713 187.933 22.6069Z" fill="#070D1E"/>
<path opacity="0.9" d="M76.1274 54.9707H72.8486L78.8183 38.014H82.6104L88.5883 54.9707H85.3095L80.7805 41.4914H80.6481L76.1274 54.9707ZM76.235 48.3221H85.177V50.7895H76.235V48.3221ZM90.6892 59.7398V42.2532H93.6368V44.3562H93.8107C93.9652 44.0471 94.1832 43.7187 94.4647 43.3709C94.7463 43.0176 95.1271 42.7168 95.6073 42.4684C96.0876 42.2145 96.7003 42.0876 97.4454 42.0876C98.4279 42.0876 99.3139 42.3387 100.103 42.841C100.898 43.3378 101.527 44.0747 101.991 45.0517C102.46 46.0232 102.695 47.2154 102.695 48.6285C102.695 50.025 102.466 51.2117 102.008 52.1887C101.549 53.1657 100.926 53.9109 100.136 54.4242C99.347 54.9376 98.4528 55.1943 97.4537 55.1943C96.7251 55.1943 96.1207 55.0728 95.6405 54.8299C95.1602 54.5871 94.7739 54.2945 94.4813 53.9523C94.1943 53.6046 93.9707 53.2761 93.8107 52.967H93.6865V59.7398H90.6892ZM93.6285 48.6119C93.6285 49.4344 93.7444 50.1547 93.9762 50.7729C94.2136 51.3911 94.5531 51.8741 94.9946 52.2219C95.4417 52.5641 95.9827 52.7352 96.6175 52.7352C97.2798 52.7352 97.8346 52.5586 98.2817 52.2053C98.7288 51.8465 99.0655 51.358 99.2918 50.7398C99.5236 50.1161 99.6395 49.4068 99.6395 48.6119C99.6395 47.8226 99.5264 47.1216 99.3001 46.5089C99.0738 45.8962 98.7371 45.416 98.2899 45.0682C97.8428 44.7205 97.2854 44.5466 96.6175 44.5466C95.9772 44.5466 95.4335 44.715 94.9864 45.0517C94.5393 45.3884 94.1998 45.8603 93.968 46.4675C93.7417 47.0747 93.6285 47.7895 93.6285 48.6119ZM105.261 59.7398V42.2532H108.209V44.3562H108.383C108.537 44.0471 108.755 43.7187 109.037 43.3709C109.318 43.0176 109.699 42.7168 110.18 42.4684C110.66 42.2145 111.272 42.0876 112.018 42.0876C113 42.0876 113.886 42.3387 114.675 42.841C115.47 43.3378 116.099 44.0747 116.563 45.0517C117.032 46.0232 117.267 47.2154 117.267 48.6285C117.267 50.025 117.038 51.2117 116.58 52.1887C116.122 53.1657 115.498 53.9109 114.709 54.4242C113.919 54.9376 113.025 55.1943 112.026 55.1943C111.297 55.1943 110.693 55.0728 110.213 54.8299C109.732 54.5871 109.346 54.2945 109.053 53.9523C108.766 53.6046 108.543 53.2761 108.383 52.967H108.259V59.7398H105.261ZM108.201 48.6119C108.201 49.4344 108.317 50.1547 108.548 50.7729C108.786 51.3911 109.125 51.8741 109.567 52.2219C110.014 52.5641 110.555 52.7352 111.19 52.7352C111.852 52.7352 112.407 52.5586 112.854 52.2053C113.301 51.8465 113.638 51.358 113.864 50.7398C114.096 50.1161 114.212 49.4068 114.212 48.6119C114.212 47.8226 114.099 47.1216 113.872 46.5089C113.646 45.8962 113.309 45.416 112.862 45.0682C112.415 44.7205 111.858 44.5466 111.19 44.5466C110.549 44.5466 110.006 44.715 109.559 45.0517C109.111 45.3884 108.772 45.8603 108.54 46.4675C108.314 47.0747 108.201 47.7895 108.201 48.6119ZM134.965 42.6754C134.887 41.9523 134.562 41.3893 133.988 40.9864C133.419 40.5834 132.679 40.382 131.769 40.382C131.128 40.382 130.579 40.4785 130.121 40.6717C129.663 40.8649 129.312 41.1271 129.07 41.4583C128.827 41.7895 128.703 42.1676 128.697 42.5926C128.697 42.9459 128.777 43.2522 128.937 43.5117C129.103 43.7711 129.326 43.9919 129.608 44.174C129.889 44.3507 130.201 44.4997 130.543 44.6211C130.886 44.7426 131.231 44.8447 131.578 44.9275L133.168 45.3249C133.808 45.4739 134.424 45.6754 135.014 45.9293C135.61 46.1832 136.143 46.5034 136.612 46.8898C137.087 47.2761 137.462 47.7426 137.738 48.289C138.014 48.8355 138.152 49.4758 138.152 50.2099C138.152 51.2035 137.898 52.0783 137.391 52.8346C136.883 53.5852 136.149 54.1731 135.188 54.5981C134.233 55.0176 133.077 55.2274 131.719 55.2274C130.4 55.2274 129.254 55.0231 128.283 54.6147C127.317 54.2062 126.561 53.6101 126.014 52.8263C125.473 52.0425 125.181 51.0875 125.137 49.9615H128.159C128.203 50.5521 128.385 51.0434 128.705 51.4353C129.025 51.8272 129.442 52.1197 129.955 52.3129C130.474 52.5061 131.054 52.6027 131.694 52.6027C132.362 52.6027 132.947 52.5034 133.45 52.3047C133.957 52.1004 134.355 51.8189 134.642 51.4601C134.929 51.0958 135.075 50.6708 135.081 50.1851C135.075 49.7435 134.945 49.3792 134.691 49.0921C134.438 48.7996 134.082 48.5567 133.623 48.3635C133.171 48.1648 132.641 47.9882 132.034 47.8336L130.105 47.3369C128.708 46.9781 127.604 46.4344 126.793 45.7058C125.987 44.9716 125.584 43.9974 125.584 42.7831C125.584 41.784 125.854 40.9091 126.395 40.1584C126.942 39.4077 127.684 38.8254 128.622 38.4114C129.561 37.9919 130.623 37.7821 131.81 37.7821C133.013 37.7821 134.068 37.9919 134.973 38.4114C135.884 38.8254 136.599 39.4022 137.117 40.1418C137.636 40.876 137.904 41.7205 137.921 42.6754H134.965ZM147.109 42.2532V44.5715H139.798V42.2532H147.109ZM141.603 39.2062H144.6V51.1455C144.6 51.5484 144.661 51.8576 144.782 52.0728C144.909 52.2826 145.075 52.4261 145.279 52.5034C145.483 52.5806 145.71 52.6193 145.958 52.6193C146.146 52.6193 146.317 52.6055 146.471 52.5779C146.631 52.5503 146.753 52.5254 146.836 52.5034L147.341 54.8465C147.181 54.9017 146.952 54.9624 146.653 55.0287C146.361 55.0949 146.002 55.1335 145.577 55.1446C144.826 55.1667 144.15 55.0535 143.549 54.8051C142.947 54.5512 142.469 54.1593 142.116 53.6294C141.768 53.0995 141.597 52.4371 141.603 51.6423V39.2062ZM155.026 55.2191C153.784 55.2191 152.708 54.9459 151.797 54.3994C150.886 53.8529 150.18 53.0885 149.678 52.1059C149.181 51.1234 148.932 49.9753 148.932 48.6616C148.932 47.3479 149.181 46.197 149.678 45.209C150.18 44.221 150.886 43.4537 151.797 42.9072C152.708 42.3608 153.784 42.0876 155.026 42.0876C156.268 42.0876 157.345 42.3608 158.255 42.9072C159.166 43.4537 159.87 44.221 160.367 45.209C160.869 46.197 161.12 47.3479 161.12 48.6616C161.12 49.9753 160.869 51.1234 160.367 52.1059C159.87 53.0885 159.166 53.8529 158.255 54.3994C157.345 54.9459 156.268 55.2191 155.026 55.2191ZM155.043 52.818C155.716 52.818 156.279 52.6331 156.732 52.2633C157.185 51.8879 157.521 51.3856 157.742 50.7564C157.968 50.1271 158.081 49.4261 158.081 48.6533C158.081 47.875 157.968 47.1713 157.742 46.542C157.521 45.9072 157.185 45.4022 156.732 45.0268C156.279 44.6515 155.716 44.4638 155.043 44.4638C154.353 44.4638 153.779 44.6515 153.321 45.0268C152.868 45.4022 152.529 45.9072 152.302 46.542C152.081 47.1713 151.971 47.875 151.971 48.6533C151.971 49.4261 152.081 50.1271 152.302 50.7564C152.529 51.3856 152.868 51.8879 153.321 52.2633C153.779 52.6331 154.353 52.818 155.043 52.818ZM163.664 54.9707V42.2532H166.57V44.3727H166.703C166.934 43.6386 167.332 43.0728 167.895 42.6754C168.463 42.2725 169.112 42.071 169.841 42.071C170.006 42.071 170.191 42.0793 170.395 42.0958C170.605 42.1069 170.779 42.1262 170.917 42.1538V44.9109C170.79 44.8668 170.589 44.8281 170.313 44.795C170.042 44.7564 169.78 44.737 169.526 44.737C168.98 44.737 168.488 44.8557 168.052 45.0931C167.622 45.3249 167.282 45.6478 167.034 46.0618C166.785 46.4758 166.661 46.9532 166.661 47.4942V54.9707H163.664ZM178.015 55.2191C176.74 55.2191 175.638 54.9541 174.711 54.4242C173.789 53.8888 173.08 53.1326 172.583 52.1556C172.087 51.1731 171.838 50.0167 171.838 48.6864C171.838 47.3783 172.087 46.2301 172.583 45.2421C173.086 44.2485 173.787 43.4758 174.686 42.9238C175.586 42.3663 176.643 42.0876 177.857 42.0876C178.641 42.0876 179.381 42.2145 180.076 42.4684C180.777 42.7168 181.396 43.1032 181.931 43.6276C182.472 44.152 182.897 44.8198 183.206 45.6313C183.515 46.4371 183.67 47.3976 183.67 48.5126V49.4316H173.246V47.4114H180.797C180.791 46.8373 180.667 46.3267 180.424 45.8796C180.181 45.427 179.842 45.071 179.406 44.8116C178.975 44.5521 178.473 44.4224 177.899 44.4224C177.286 44.4224 176.748 44.5715 176.284 44.8695C175.821 45.1621 175.459 45.5485 175.2 46.0287C174.946 46.5034 174.816 47.025 174.811 47.5935V49.3571C174.811 50.0967 174.946 50.7315 175.216 51.2614C175.487 51.7858 175.865 52.1887 176.351 52.4702C176.836 52.7462 177.405 52.8842 178.056 52.8842C178.492 52.8842 178.887 52.8235 179.24 52.7021C179.593 52.5751 179.9 52.3902 180.159 52.1473C180.419 51.9045 180.615 51.6036 180.747 51.2449L183.546 51.5595C183.369 52.2991 183.032 52.9449 182.535 53.4969C182.044 54.0434 181.415 54.4684 180.648 54.772C179.88 55.0701 179.003 55.2191 178.015 55.2191Z" fill="#070D1E"/>
</g>
<defs>
<clipPath id="clip0_169_48919">
<rect width="218" height="71.1123" fill="white"/>
</clipPath>
</defs>
</svg>
