<svg width="225" height="69" viewBox="0 0 225 69" fill="none" xmlns="http://www.w3.org/2000/svg">
<g clip-path="url(#clip0_169_48939)">
<path d="M214.183 0H10.8172C4.84301 0 0 4.74534 0 10.599V58.401C0 64.2547 4.84301 69 10.8172 69H214.183C220.157 69 225 64.2547 225 58.401V10.599C225 4.74534 220.157 0 214.183 0Z" fill="#00A057"/>
<g clip-path="url(#clip1_169_48939)">
<path d="M21.938 26.4893V43.3696C21.938 44.688 22.7459 45.7222 24.1307 45.7222H25.9384C25.8764 45.7222 25.7371 46.1695 25.7371 46.3891V51.1701C25.7371 52.4196 26.9598 53.4327 28.2698 53.4327C29.5805 53.4327 30.8026 52.4196 30.8026 51.1701V46.3891C30.8026 46.1695 30.5582 45.7222 30.498 45.7222H34.9075C34.8474 45.7222 34.6017 46.1695 34.6017 46.3891V51.1701C34.6017 52.4196 35.8219 53.4327 37.1319 53.4327C38.4451 53.4327 39.6672 52.4196 39.6672 51.1701V46.3891C39.6672 46.1695 39.5285 45.7222 39.4665 45.7222H41.2768C42.6615 45.7222 43.4663 44.688 43.4663 43.3696V26.4893H21.793H21.938Z" fill="white"/>
<path d="M17.5054 26.7646C16.1941 26.7646 14.9727 27.7784 14.9727 29.0273V38.7151C14.9727 39.9646 16.1941 40.9778 17.5054 40.9778C18.8161 40.9778 20.0382 39.9646 20.0382 38.7151V29.0279C20.0382 27.7784 18.8161 26.7646 17.5054 26.7646Z" fill="white"/>
<path d="M38.1511 17.6972L38.593 17.0618L39.0356 16.434L40.0215 15.0225C40.145 14.8476 40.0937 14.6143 39.912 14.4995C39.7321 14.3823 39.4833 14.4313 39.3655 14.605L37.8604 16.7535L37.4077 17.4006C35.9773 16.8708 34.3836 16.5754 32.7 16.5754C31.0201 16.5754 29.4232 16.8714 27.9929 17.4006L27.5427 16.7541L27.0975 16.1194L26.0401 14.6062C25.9179 14.4319 25.6722 14.386 25.4899 14.5008C25.3094 14.6162 25.2594 14.8494 25.3797 15.0238L26.3649 16.4358L26.8075 17.0643L27.252 17.6978C23.8936 19.1899 21.6211 22.1468 21.6211 25.2489H43.7795C43.7795 22.1468 41.5076 19.1899 38.1511 17.6972ZM27.9517 22.2367C27.2938 22.2367 26.7638 21.7299 26.7638 21.1039C26.7638 20.4779 27.2938 19.9735 27.9517 19.9735C28.6077 19.9735 29.1389 20.4779 29.1389 21.1039C29.1389 21.7299 28.6083 22.2367 27.9517 22.2367ZM37.4495 22.2367C36.7923 22.2367 36.261 21.7299 36.261 21.1039C36.261 20.4779 36.7923 19.9735 37.4495 19.9735C38.1055 19.9735 38.6367 20.4779 38.6367 21.1039C38.6367 21.7299 38.1055 22.2367 37.4495 22.2367Z" fill="white"/>
<path d="M17.6181 31.822C16.631 31.822 15.6058 30.9093 14.9727 29.4619V38.7154C14.9727 39.965 16.1941 40.9781 17.5054 40.9781C18.8161 40.9781 20.0382 39.965 20.0382 38.7154V29.9446C19.405 31.1073 18.4894 31.822 17.6181 31.822Z" fill="white"/>
<path d="M47.896 26.7646C46.5847 26.7646 45.3633 27.7784 45.3633 29.0273V38.7151C45.3633 39.9646 46.5847 40.9778 47.896 40.9778C49.2067 40.9778 50.4288 39.9646 50.4288 38.7151V29.0279C50.4288 27.7784 49.2067 26.7646 47.896 26.7646Z" fill="white"/>
<path d="M48.0087 31.822C47.0216 31.822 45.9965 30.9093 45.3633 29.4619V38.7154C45.3633 39.965 46.5847 40.9781 47.896 40.9781C49.2067 40.9781 50.4288 39.965 50.4288 38.7154V29.9446C49.7956 31.1073 48.88 31.822 48.0087 31.822Z" fill="white"/>
<path d="M32.7017 28.343C27.6932 28.343 23.2039 27.7753 21.9375 26.9694V43.3695C21.9375 44.6879 22.7454 45.7221 24.1302 45.7221H25.938C25.8759 45.7221 25.7366 46.1694 25.7366 46.3891V51.17C25.7366 52.4195 26.9593 53.4326 28.2694 53.4326C29.5801 53.4326 30.8021 52.4195 30.8021 51.17V46.3891C30.8021 46.1694 30.5577 45.7221 30.4976 45.7221H34.9071C34.8469 45.7221 34.6012 46.1694 34.6012 46.3891V51.17C34.6012 52.4195 35.8214 53.4326 37.1314 53.4326C38.4447 53.4326 39.6667 52.4195 39.6667 51.17V46.3891C39.6667 46.1694 39.5281 45.7221 39.466 45.7221H41.2763C42.6611 45.7221 43.4659 44.6879 43.4659 43.3695V26.9688C42.1995 27.7747 37.7108 28.343 32.7017 28.343Z" fill="white"/>
<path d="M38.6367 21.1027C38.6367 21.7287 38.1055 22.2356 37.4495 22.2356C36.7923 22.2356 36.261 21.7287 36.261 21.1027C36.261 20.7634 36.4199 20.4637 36.6675 20.2565C35.4157 20.0517 34.0841 19.9395 32.7 19.9395C31.3158 19.9395 29.9849 20.0517 28.7324 20.2565C28.9806 20.4631 29.1396 20.7634 29.1396 21.1027C29.1396 21.7287 28.6083 22.2356 27.9523 22.2356C27.2944 22.2356 26.7645 21.7287 26.7645 21.1027C26.7645 20.9427 26.8006 20.7907 26.8632 20.6523C24.965 21.1412 23.3339 21.8547 22.1029 22.7313C21.7927 23.5298 21.6211 24.6279 21.6211 25.2484H43.7795C43.7795 24.6279 43.6079 23.5304 43.2982 22.7326C42.068 21.8547 40.4362 21.14 38.5392 20.6511C38.6013 20.7894 38.6367 20.9433 38.6367 21.1027Z" fill="white"/>
<path d="M32.7017 34.8174C28.4359 34.8174 24.4702 33.9929 21.9375 32.6416V43.3699C21.9375 44.6882 22.7454 45.7225 24.1302 45.7225H25.938C25.8759 45.7225 25.7366 46.1698 25.7366 46.3894V51.1704C25.7366 52.4199 26.9593 53.433 28.2694 53.433C29.5801 53.433 30.8021 52.4199 30.8021 51.1704V46.3894C30.8021 46.1698 30.5577 45.7225 30.4976 45.7225H34.9071C34.8469 45.7225 34.6012 46.1698 34.6012 46.3894V51.1704C34.6012 52.4199 35.8214 53.433 37.1314 53.433C38.4447 53.433 39.6667 52.4199 39.6667 51.1704V46.3894C39.6667 46.1698 39.5281 45.7225 39.466 45.7225H41.2763C42.6611 45.7225 43.4659 44.6882 43.4659 43.3699V32.6416C40.9331 33.9935 36.9675 34.8174 32.7017 34.8174Z" fill="white"/>
</g>
<path opacity="0.9" d="M64.3636 40H59.4347V25.4545H64.4631C65.9072 25.4545 67.1477 25.7457 68.1847 26.3281C69.2263 26.9058 70.0265 27.7367 70.5852 28.821C71.1439 29.9053 71.4233 31.2027 71.4233 32.7131C71.4233 34.2282 71.1416 35.5303 70.5781 36.6193C70.0194 37.7083 69.2121 38.544 68.1562 39.1264C67.1051 39.7088 65.8409 40 64.3636 40ZM62.0696 37.7202H64.2358C65.2491 37.7202 66.0942 37.5355 66.7713 37.1662C67.4484 36.7921 67.9574 36.2358 68.2983 35.4972C68.6392 34.7538 68.8097 33.8258 68.8097 32.7131C68.8097 31.6004 68.6392 30.6771 68.2983 29.9432C67.9574 29.2045 67.4531 28.6529 66.7855 28.2884C66.1226 27.919 65.2988 27.7344 64.3139 27.7344H62.0696V37.7202ZM78.5717 40.2131C77.5064 40.2131 76.5831 39.9787 75.8018 39.5099C75.0206 39.0412 74.4145 38.3854 73.9837 37.5426C73.5575 36.6998 73.3445 35.715 73.3445 34.5881C73.3445 33.4612 73.5575 32.474 73.9837 31.6264C74.4145 30.7789 75.0206 30.1207 75.8018 29.652C76.5831 29.1832 77.5064 28.9489 78.5717 28.9489C79.6371 28.9489 80.5604 29.1832 81.3416 29.652C82.1229 30.1207 82.7266 30.7789 83.1527 31.6264C83.5836 32.474 83.799 33.4612 83.799 34.5881C83.799 35.715 83.5836 36.6998 83.1527 37.5426C82.7266 38.3854 82.1229 39.0412 81.3416 39.5099C80.5604 39.9787 79.6371 40.2131 78.5717 40.2131ZM78.5859 38.1534C79.1636 38.1534 79.6465 37.9948 80.0348 37.6776C80.4231 37.3556 80.7119 36.9247 80.9013 36.3849C81.0954 35.8452 81.1925 35.2438 81.1925 34.581C81.1925 33.9134 81.0954 33.3097 80.9013 32.7699C80.7119 32.2254 80.4231 31.7921 80.0348 31.4702C79.6465 31.1482 79.1636 30.9872 78.5859 30.9872C77.9941 30.9872 77.5017 31.1482 77.1087 31.4702C76.7204 31.7921 76.4292 32.2254 76.2351 32.7699C76.0457 33.3097 75.951 33.9134 75.951 34.581C75.951 35.2438 76.0457 35.8452 76.2351 36.3849C76.4292 36.9247 76.7204 37.3556 77.1087 37.6776C77.5017 37.9948 77.9941 38.1534 78.5859 38.1534ZM87.9201 40L84.8377 29.0909H87.4585L89.3761 36.7614H89.4755L91.4357 29.0909H94.0281L95.9883 36.7188H96.0948L97.984 29.0909H100.612L97.5224 40H94.8448L92.7994 32.6278H92.6502L90.6048 40H87.9201ZM104.978 33.608V40H102.407V29.0909H104.864V30.9446H104.992C105.243 30.3338 105.643 29.8485 106.192 29.4886C106.746 29.1288 107.431 28.9489 108.245 28.9489C108.998 28.9489 109.654 29.1098 110.212 29.4318C110.776 29.7538 111.211 30.2202 111.519 30.831C111.832 31.4418 111.986 32.1828 111.981 33.054V40H109.41V33.4517C109.41 32.7225 109.22 32.152 108.842 31.7401C108.468 31.3281 107.949 31.1222 107.286 31.1222C106.836 31.1222 106.436 31.2216 106.086 31.4205C105.74 31.6146 105.468 31.8963 105.269 32.2656C105.075 32.6349 104.978 33.0824 104.978 33.608ZM117.165 25.4545V40H114.594V25.4545H117.165ZM124.568 40.2131C123.502 40.2131 122.579 39.9787 121.798 39.5099C121.017 39.0412 120.411 38.3854 119.98 37.5426C119.554 36.6998 119.341 35.715 119.341 34.5881C119.341 33.4612 119.554 32.474 119.98 31.6264C120.411 30.7789 121.017 30.1207 121.798 29.652C122.579 29.1832 123.502 28.9489 124.568 28.9489C125.633 28.9489 126.556 29.1832 127.338 29.652C128.119 30.1207 128.723 30.7789 129.149 31.6264C129.58 32.474 129.795 33.4612 129.795 34.5881C129.795 35.715 129.58 36.6998 129.149 37.5426C128.723 38.3854 128.119 39.0412 127.338 39.5099C126.556 39.9787 125.633 40.2131 124.568 40.2131ZM124.582 38.1534C125.16 38.1534 125.643 37.9948 126.031 37.6776C126.419 37.3556 126.708 36.9247 126.897 36.3849C127.092 35.8452 127.189 35.2438 127.189 34.581C127.189 33.9134 127.092 33.3097 126.897 32.7699C126.708 32.2254 126.419 31.7921 126.031 31.4702C125.643 31.1482 125.16 30.9872 124.582 30.9872C123.99 30.9872 123.498 31.1482 123.105 31.4702C122.717 31.7921 122.425 32.2254 122.231 32.7699C122.042 33.3097 121.947 33.9134 121.947 34.581C121.947 35.2438 122.042 35.8452 122.231 36.3849C122.425 36.9247 122.717 37.3556 123.105 37.6776C123.498 37.9948 123.99 38.1534 124.582 38.1534ZM135.116 40.2202C134.425 40.2202 133.803 40.0971 133.249 39.8509C132.699 39.5999 132.264 39.2306 131.942 38.7429C131.625 38.2552 131.466 37.6539 131.466 36.9389C131.466 36.3234 131.58 35.8144 131.807 35.4119C132.034 35.0095 132.344 34.6875 132.737 34.446C133.13 34.2045 133.573 34.0223 134.065 33.8991C134.563 33.7713 135.076 33.679 135.607 33.6222C136.246 33.5559 136.764 33.4967 137.162 33.4446C137.56 33.3878 137.848 33.3026 138.028 33.1889C138.213 33.0705 138.305 32.8883 138.305 32.642V32.5994C138.305 32.0644 138.147 31.6501 137.83 31.3565C137.512 31.063 137.055 30.9162 136.459 30.9162C135.829 30.9162 135.33 31.0535 134.96 31.3281C134.596 31.6027 134.349 31.9271 134.222 32.3011L131.821 31.9602C132.01 31.2973 132.323 30.7434 132.759 30.2983C133.194 29.8485 133.727 29.5123 134.357 29.2898C134.986 29.0625 135.682 28.9489 136.445 28.9489C136.97 28.9489 137.493 29.0104 138.014 29.1335C138.535 29.2566 139.011 29.4602 139.442 29.7443C139.873 30.0237 140.218 30.4048 140.479 30.8878C140.744 31.3707 140.876 31.9744 140.876 32.6989V40H138.405V38.5014H138.32C138.163 38.8045 137.943 39.0885 137.659 39.3537C137.38 39.6141 137.027 39.8248 136.601 39.9858C136.179 40.142 135.685 40.2202 135.116 40.2202ZM135.784 38.331C136.3 38.331 136.748 38.2292 137.126 38.0256C137.505 37.8172 137.796 37.5426 138 37.2017C138.208 36.8608 138.312 36.4891 138.312 36.0866V34.8011C138.232 34.8674 138.095 34.929 137.901 34.9858C137.711 35.0426 137.498 35.0923 137.261 35.1349C137.025 35.1776 136.79 35.2154 136.558 35.2486C136.326 35.2817 136.125 35.3101 135.955 35.3338C135.571 35.3859 135.228 35.4711 134.925 35.5895C134.622 35.7079 134.383 35.8736 134.207 36.0866C134.032 36.295 133.945 36.5649 133.945 36.8963C133.945 37.3698 134.117 37.7273 134.463 37.9688C134.809 38.2102 135.249 38.331 135.784 38.331ZM147.51 40.1918C146.653 40.1918 145.886 39.9716 145.209 39.5312C144.532 39.0909 143.997 38.4517 143.604 37.6136C143.211 36.7756 143.014 35.7576 143.014 34.5597C143.014 33.3475 143.213 32.3248 143.611 31.4915C144.013 30.6534 144.555 30.0213 145.237 29.5952C145.919 29.1643 146.679 28.9489 147.517 28.9489C148.156 28.9489 148.682 29.0578 149.094 29.2756C149.506 29.4886 149.832 29.7467 150.074 30.0497C150.315 30.348 150.502 30.6297 150.635 30.8949H150.741V25.4545H153.32V40H150.791V38.2812H150.635C150.502 38.5464 150.311 38.8281 150.06 39.1264C149.809 39.42 149.477 39.6709 149.065 39.8793C148.653 40.0876 148.135 40.1918 147.51 40.1918ZM148.227 38.0824C148.772 38.0824 149.236 37.9356 149.619 37.642C150.003 37.3437 150.294 36.9295 150.493 36.3991C150.692 35.8688 150.791 35.2509 150.791 34.5455C150.791 33.84 150.692 33.2268 150.493 32.706C150.299 32.1851 150.01 31.7803 149.626 31.4915C149.248 31.2027 148.781 31.0582 148.227 31.0582C147.654 31.0582 147.176 31.2074 146.793 31.5057C146.409 31.804 146.12 32.2159 145.926 32.7415C145.732 33.267 145.635 33.8684 145.635 34.5455C145.635 35.2273 145.732 35.8357 145.926 36.3707C146.125 36.901 146.416 37.3201 146.8 37.6278C147.188 37.9309 147.664 38.0824 148.227 38.0824ZM163.002 40H160.189L165.31 25.4545H168.563L173.691 40H170.878L166.993 28.4375H166.88L163.002 40ZM163.094 34.2969H170.765V36.4134H163.094V34.2969ZM175.607 40V25.4545H181.061C182.179 25.4545 183.116 25.6629 183.874 26.0795C184.636 26.4962 185.211 27.0691 185.599 27.7983C185.992 28.5227 186.189 29.3466 186.189 30.2699C186.189 31.2027 185.992 32.0312 185.599 32.7557C185.206 33.4801 184.626 34.0507 183.859 34.4673C183.092 34.8793 182.148 35.0852 181.026 35.0852H177.411V32.919H180.67C181.324 32.919 181.859 32.8054 182.276 32.5781C182.692 32.3509 183 32.0384 183.199 31.6406C183.402 31.2429 183.504 30.786 183.504 30.2699C183.504 29.7538 183.402 29.2992 183.199 28.9062C183 28.5133 182.69 28.2079 182.268 27.9901C181.852 27.7675 181.314 27.6562 180.656 27.6562H178.241V40H175.607ZM188.478 40V25.4545H191.113V32.1378H191.29L196.965 25.4545H200.182L194.557 31.9815L200.232 40H197.064L192.725 33.7642L191.113 35.6676V40H188.478Z" fill="white"/>
</g>
<defs>
<clipPath id="clip0_169_48939">
<rect width="225" height="69" fill="white"/>
</clipPath>
<clipPath id="clip1_169_48939">
<rect width="36.2" height="38.9977" fill="white" transform="translate(12.8008 14.4355)"/>
</clipPath>
</defs>
</svg>
