<svg width="36" height="36" viewBox="0 0 36 36" fill="none" xmlns="http://www.w3.org/2000/svg">
<g clip-path="url(#clip0_1_9893)">
<path d="M27.6595 15.61L17.9995 6L8.33947 15.61C8.2255 15.6968 8.1315 15.8071 8.06385 15.9333C7.9962 16.0596 7.95646 16.1989 7.94734 16.3419C7.93822 16.4849 7.95992 16.6281 8.01098 16.762C8.06204 16.8958 8.14126 17.0172 8.24327 17.1177C8.34529 17.2183 8.46773 17.2958 8.6023 17.3449C8.73686 17.3941 8.88041 17.4137 9.02324 17.4025C9.16606 17.3914 9.30481 17.3497 9.43011 17.2802C9.55541 17.2108 9.66432 17.1152 9.74947 17L16.9995 9.81V28.94C16.9995 29.2052 17.1048 29.4596 17.2924 29.6471C17.4799 29.8346 17.7343 29.94 17.9995 29.94C18.2647 29.94 18.519 29.8346 18.7066 29.6471C18.8941 29.4596 18.9995 29.2052 18.9995 28.94V9.81L26.2495 17C26.4378 17.187 26.6926 17.2915 26.958 17.2906C27.2234 17.2896 27.4775 17.1833 27.6645 16.995C27.8514 16.8067 27.956 16.5518 27.955 16.2865C27.9541 16.0211 27.8478 15.767 27.6595 15.58V15.61Z" fill="#070D1E"/>
</g>
<defs>
<clipPath id="clip0_1_9893">
<rect width="36" height="36" fill="white"/>
</clipPath>
</defs>
</svg>
