<svg width="20" height="20" viewBox="0 0 20 20" fill="none" xmlns="http://www.w3.org/2000/svg">
<g clip-path="url(#clip0_156_30136)">
<path d="M19.0336 14.2897C17.1635 18.2315 13.05 20.3856 8.94459 19.9494C8.83929 19.938 8.73399 19.9255 8.62879 19.9105C8.4722 19.8893 8.3156 19.8636 8.159 19.8344C8.08823 19.8211 8.01832 19.807 7.94764 19.792C7.86269 19.7743 7.77687 19.7548 7.69201 19.7354C7.5115 19.692 7.33195 19.6442 7.15328 19.5902C6.66758 19.4451 6.18728 19.262 5.71575 19.0382C0.727419 16.672 -1.3983 10.7097 0.968003 5.72046C2.93539 1.57335 7.38769 -0.595669 11.7002 0.151829C11.8337 0.173911 11.9664 0.200524 12.0992 0.228777C12.1177 0.233213 12.1372 0.236781 12.1558 0.241216C12.3619 0.286344 12.5671 0.339378 12.7715 0.399549C12.8971 0.434937 13.0227 0.473893 13.1474 0.515453C13.1546 0.518057 13.1616 0.519889 13.1686 0.522492C13.5446 0.648136 13.918 0.798465 14.285 0.972804C19.2743 3.33921 21.3999 9.30144 19.0336 14.2898V14.2897Z" fill="url(#paint0_linear_156_30136)"/>
<path d="M18.2925 13.1901C16.6551 16.8577 13.3015 18.8543 9.73832 18.9551C9.63042 18.9587 9.52156 18.9596 9.41279 18.9596C9.22794 18.9587 9.04212 18.9525 8.85728 18.9419C8.74224 18.9349 8.6273 18.9269 8.51226 18.9154C7.84171 18.8535 7.16943 18.7234 6.50592 18.5262C6.38471 18.49 6.26446 18.4519 6.14412 18.4112C5.97779 18.3555 5.81155 18.2944 5.64608 18.2298C5.51166 18.1768 5.37898 18.1209 5.2462 18.0626H5.24533C5.15421 18.0219 5.06396 17.9804 4.9738 17.9379C3.51149 17.2444 2.29526 16.2395 1.36726 15.0425C1.36726 15.0425 1.36282 15.0408 1.36282 15.0381C0.932854 14.3021 0.601147 13.5139 0.372906 12.6965C-0.256951 10.4549 -0.108358 7.98508 0.967375 5.71598C3.12762 1.15751 8.29289 -1.00977 12.9725 0.45254C12.9725 0.45254 12.9725 0.455144 12.9742 0.455144C16.0784 1.36801 17.7219 3.64242 17.8926 3.86353C17.8944 3.86353 17.8944 3.86526 17.8962 3.86796C19.8698 8.40782 18.6861 12.3045 18.2925 13.19V13.1901Z" fill="url(#paint1_linear_156_30136)"/>
<path d="M14.4613 10.1905C14.2058 10.7292 12.3902 14.8393 7.03126 15.1936C5.60541 15.2879 4.14011 15.017 2.75842 14.3612C1.84931 13.9311 1.05099 13.3648 0.373984 12.7006C-0.256163 10.4588 -0.107088 7.98921 0.96797 5.71982C3.12889 1.16165 8.29377 -1.00563 12.9732 0.456961C12.9732 0.456961 12.9732 0.459083 12.9753 0.459083C15.3106 2.62926 15.9303 7.09293 14.4613 10.1905Z" fill="url(#paint2_linear_156_30136)"/>
<path d="M4.55342 5.4882C2.99575 7.12379 2.49289 8.53711 1.71878 7.5526C0.964819 6.59383 2.14219 4.76867 3.35957 3.67375C4.57695 2.57883 6.86168 1.8349 7.4467 3.09085C7.7111 3.65851 6.06848 3.89726 4.55342 5.48811V5.4882Z" fill="url(#paint3_linear_156_30136)"/>
<path d="M8.45972 6.054C6.29331 10.6222 6.43467 15.7609 8.62857 19.9106C8.52327 19.8991 8.01819 19.8071 7.94741 19.7921C5.68717 15.6193 5.38025 10.4603 7.56971 5.8435C8.65248 3.56119 10.2236 1.66727 12.099 0.228882C12.1175 0.233317 12.1366 0.239971 12.1556 0.241321C12.42 0.25887 13.0863 0.488558 13.0933 0.491162C11.2179 1.92869 9.54336 3.77275 8.45972 6.0541V6.054Z" fill="url(#paint4_linear_156_30136)"/>
<path d="M7.69879 6.30239C5.57037 10.7882 5.90478 15.8085 8.15788 19.8343C8.00215 19.8051 7.50941 19.698 7.33073 19.6441C5.06172 15.6112 4.54064 10.522 6.67436 6.02285C7.84035 3.56369 9.59897 1.57682 11.699 0.151733C11.8512 0.177383 12.0034 0.207468 12.1547 0.241121C12.3608 0.286248 12.566 0.339283 12.7703 0.399453C10.6499 1.82724 8.87452 3.82558 7.69879 6.30249V6.30239Z" fill="url(#paint5_linear_156_30136)"/>
<path d="M7.73237 6.28657C5.60221 10.7769 6.01183 15.9042 8.3817 19.8735C8.06851 19.8311 8.12357 19.8362 7.81221 19.7627C5.39104 15.7794 4.9576 10.6654 7.10453 6.13885C8.29087 3.63716 10.0903 1.6555 12.2584 0.258667C12.591 0.332047 12.542 0.311991 12.8702 0.421628C10.7037 1.81846 8.9187 3.78662 7.73246 6.28648L7.73237 6.28657Z" fill="url(#paint6_linear_156_30136)"/>
<path d="M10.8215 0.258258C10.2637 0.326238 9.85775 0.794678 9.66779 1.29542C9.6512 1.33929 9.71388 1.37073 9.74406 1.33978C10.0919 0.983192 10.5129 0.719851 10.8693 0.373294C10.9076 0.335977 10.8816 0.250929 10.8216 0.258258H10.8215Z" fill="#EAE9E8"/>
<path d="M9.26594 1.52265C8.71862 1.64993 8.36512 2.15916 8.22993 2.67735C8.21807 2.72277 8.28383 2.74726 8.31045 2.71332C8.61805 2.32154 9.00848 2.01461 9.32563 1.6319C9.35976 1.59063 9.32485 1.50895 9.26594 1.52265Z" fill="#EAE9E8"/>
<path d="M7.96001 3.0097C7.43121 3.19966 7.13913 3.7464 7.06488 4.27684C7.05842 4.32332 7.1265 4.3401 7.14906 4.30317C7.40913 3.87841 7.76128 3.52828 8.03194 3.11124C8.06107 3.0663 8.01681 2.98916 7.95991 3.0096L7.96001 3.0097Z" fill="#EAE9E8"/>
<path d="M6.85911 4.61601C6.37033 4.89314 6.17545 5.48163 6.19242 6.0169C6.19396 6.06376 6.26387 6.06868 6.27988 6.02856C6.46396 5.56572 6.7515 5.16082 6.94725 4.70395C6.96836 4.65478 6.91167 4.58622 6.85902 4.61601H6.85911Z" fill="#EAE9E8"/>
<path d="M5.98166 6.38581C5.52103 6.70759 5.38237 7.31179 5.44958 7.8431C5.45546 7.88958 5.52556 7.88794 5.53771 7.84648C5.67753 7.3684 5.92563 6.93824 6.0777 6.46498C6.09409 6.41397 6.03122 6.35119 5.98166 6.38581Z" fill="#EAE9E8"/>
<path d="M5.32442 8.3004C4.92599 8.69661 4.8933 9.31567 5.05105 9.8275C5.06484 9.87234 5.13369 9.85865 5.13851 9.81574C5.19396 9.32078 5.36444 8.85437 5.43271 8.36192C5.44004 8.30888 5.36733 8.25778 5.32452 8.3004H5.32442Z" fill="#EAE9E8"/>
<path d="M4.95354 10.2732C4.63099 10.7333 4.70746 11.3485 4.95267 11.8246C4.97417 11.8663 5.03945 11.8407 5.03666 11.7976C5.00426 11.3006 5.09017 10.8115 5.07098 10.3148C5.06886 10.2613 4.98835 10.2238 4.95363 10.2732H4.95354Z" fill="#EAE9E8"/>
<path d="M4.9132 12.2753C4.65111 12.7724 4.80462 13.3729 5.10769 13.8145C5.1342 13.8531 5.19582 13.8195 5.18763 13.7772C5.09284 13.2882 5.11646 12.7922 5.03479 12.3017C5.02601 12.2489 4.94135 12.2218 4.9131 12.2753H4.9132Z" fill="#EAE9E8"/>
<path d="M5.11205 14.2684C4.92372 14.7978 5.16132 15.3704 5.52456 15.764C5.55638 15.7984 5.6125 15.7564 5.59832 15.7156C5.43469 15.2451 5.38715 14.7508 5.23624 14.2772C5.22004 14.2262 5.13239 14.2114 5.11205 14.2684Z" fill="#EAE9E8"/>
<path d="M5.5644 16.2186C5.424 16.7627 5.71183 17.3117 6.10872 17.6714C6.14344 17.7028 6.1956 17.6559 6.17786 17.6166C5.97295 17.1626 5.88145 16.6745 5.68888 16.2162C5.66815 16.1668 5.57953 16.16 5.5644 16.2186Z" fill="#EAE9E8"/>
<path d="M6.13251 18.0387C6.0601 18.5959 6.41311 19.1054 6.85108 19.4136C6.88946 19.4406 6.93546 19.3877 6.91299 19.3507C6.65379 18.9254 6.50318 18.4522 6.25575 18.021C6.22913 17.9745 6.14032 17.9787 6.13251 18.0387Z" fill="#EAE9E8"/>
<path d="M9.90491 0.236621C9.3655 0.293609 8.96639 0.739389 8.77537 1.21979C8.75859 1.26183 8.81866 1.29317 8.84827 1.26376C9.18942 0.925009 9.59981 0.67729 9.94907 0.348283C9.98677 0.312798 9.96286 0.23045 9.90491 0.236525V0.236621Z" fill="#EAE9E8"/>
<path d="M8.38348 1.43281C7.85333 1.54726 7.50426 2.03325 7.36579 2.5313C7.35365 2.57488 7.41671 2.59966 7.44303 2.56726C7.74591 2.1939 8.12747 1.90375 8.4395 1.53916C8.47316 1.49992 8.44066 1.42046 8.38358 1.43281H8.38348Z" fill="#EAE9E8"/>
<path d="M7.10077 2.84809C6.58749 3.02329 6.29715 3.54641 6.21731 4.05718C6.21037 4.10192 6.27584 4.11908 6.29812 4.08389C6.55567 3.67793 6.90097 3.34545 7.16865 2.94721C7.19748 2.9043 7.15602 2.82919 7.10077 2.84809Z" fill="white"/>
<path d="M6.01286 4.38133C5.5368 4.6412 5.3397 5.20616 5.3479 5.72301C5.34858 5.76823 5.41607 5.77411 5.43208 5.73564C5.61683 5.29179 5.90062 4.90541 6.09665 4.46744C6.11777 4.42029 6.06416 4.35327 6.01286 4.38123V4.38133Z" fill="#EAE9E8"/>
<path d="M5.13954 6.07593C4.69 6.37938 4.54681 6.96035 4.60361 7.47421C4.60852 7.51924 4.67631 7.51866 4.68865 7.47884C4.83088 7.01956 5.07706 6.6083 5.23105 6.15384C5.24764 6.10486 5.18795 6.04324 5.13954 6.07593Z" fill="#EAE9E8"/>
<path d="M4.47617 7.91354C4.08554 8.2898 4.04446 8.88678 4.18872 9.38318C4.20135 9.42667 4.26798 9.41452 4.27328 9.37315C4.33442 8.89623 4.50615 8.44871 4.57963 7.97458C4.58754 7.92348 4.51811 7.87304 4.47607 7.91354H4.47617Z" fill="#EAE9E8"/>
<path d="M4.08719 9.81172C3.76879 10.2508 3.8331 10.8456 4.0624 11.309C4.08246 11.3496 4.14591 11.3259 4.14388 11.2843C4.12026 10.8041 4.2108 10.3334 4.19991 9.85367C4.19875 9.80198 4.12151 9.76457 4.08728 9.81182L4.08719 9.81172Z" fill="#EAE9E8"/>
<path d="M4.01791 11.7433C3.75727 12.2189 3.89613 12.801 4.18194 13.2317C4.20701 13.2694 4.26689 13.238 4.25965 13.1969C4.17576 12.7235 4.20623 12.2452 4.13498 11.7706C4.12726 11.7195 4.04597 11.6921 4.01801 11.7433H4.01791Z" fill="#EAE9E8"/>
<path d="M4.17838 13.6699C3.98842 14.178 4.20905 14.7341 4.55338 15.1197C4.58357 15.1534 4.63843 15.1137 4.62532 15.0741C4.4746 14.6176 4.43642 14.1398 4.29805 13.6803C4.2832 13.6308 4.19873 13.6153 4.17828 13.67L4.17838 13.6699Z" fill="#EAE9E8"/>
<path d="M4.58428 15.5592C4.44041 16.0821 4.70973 16.6165 5.08724 16.9697C5.12022 17.0006 5.17132 16.9562 5.15484 16.9179C4.96401 16.4767 4.8833 16.0042 4.70452 15.5589C4.68524 15.5109 4.5998 15.503 4.58438 15.5593L4.58428 15.5592Z" fill="#EAE9E8"/>
<path d="M5.10531 17.3246C5.02672 17.8612 5.35968 18.3585 5.77759 18.6627C5.81423 18.6893 5.85946 18.639 5.83834 18.603C5.59477 18.1885 5.45669 17.7295 5.22449 17.3095C5.19952 17.2643 5.1137 17.2669 5.10531 17.3247V17.3246Z" fill="#EAE9E8"/>
<path d="M5.52466 15.7644C5.35129 15.5768 5.20617 15.3468 5.12305 15.101C5.23008 15.1196 5.33798 15.1345 5.44501 15.1469C5.48744 15.3381 5.5344 15.5291 5.59891 15.7158C5.61309 15.7565 5.55648 15.798 5.52457 15.7645L5.52466 15.7644Z" fill="#CCCCCC"/>
<path d="M5.5644 16.2186C5.424 16.7627 5.71183 17.3117 6.10872 17.6714C6.14344 17.7028 6.1956 17.6559 6.17786 17.6166C5.97295 17.1626 5.88145 16.6745 5.68888 16.2162C5.66815 16.1668 5.57953 16.16 5.5644 16.2186Z" fill="#CCCCCC"/>
<path d="M6.50678 18.526C6.38557 18.4898 6.26532 18.4517 6.14498 18.411C6.12194 18.2898 6.11577 18.166 6.13264 18.0386C6.14064 17.9784 6.22907 17.9748 6.25559 18.0208C6.34931 18.1853 6.42983 18.3553 6.50678 18.5259V18.526Z" fill="#CCCCCC"/>
<path d="M4.55392 15.1195C4.50792 15.0682 4.46453 15.0142 4.4248 14.9576C4.48411 14.9736 4.54331 14.9877 4.60262 15.001C4.60965 15.0258 4.61766 15.0497 4.62566 15.0744C4.63897 15.1142 4.5841 15.1531 4.55402 15.1195H4.55392Z" fill="#CCCCCC"/>
<path d="M4.58428 15.5592C4.44041 16.0821 4.70973 16.6165 5.08724 16.9697C5.12022 17.0006 5.17132 16.9562 5.15484 16.9179C4.96401 16.4767 4.8833 16.0042 4.70452 15.5589C4.68524 15.5109 4.5998 15.503 4.58438 15.5593L4.58428 15.5592Z" fill="#CCCCCC"/>
<path d="M5.64656 18.2297C5.51214 18.1767 5.37945 18.1209 5.24668 18.0625H5.24581C5.12643 17.8379 5.06713 17.5857 5.10522 17.3248C5.11409 17.2664 5.19981 17.2646 5.22459 17.3097C5.38823 17.6061 5.50587 17.9227 5.64656 18.2297Z" fill="#CCCCCC"/>
<path d="M13.5504 0.721515C12.9913 0.77725 12.575 1.23663 12.3742 1.73312C12.3566 1.77661 12.4186 1.8094 12.4494 1.77922C12.8049 1.43035 13.2316 1.17636 13.5955 0.837613C13.6347 0.801163 13.6105 0.715633 13.5504 0.721612V0.721515Z" fill="#EAE9E8"/>
<path d="M11.9661 1.95146C11.4162 2.06678 11.0515 2.56811 10.905 3.08322C10.8921 3.12825 10.9573 3.15428 10.9847 3.12092C11.3008 2.73598 11.6979 2.43774 12.0234 2.06196C12.0585 2.02156 12.0254 1.93902 11.9661 1.95146Z" fill="#EAE9E8"/>
<path d="M10.6284 3.40959C10.0955 3.58789 9.79148 4.12816 9.70566 4.65677C9.69814 4.70306 9.76592 4.72128 9.78926 4.68503C10.0586 4.26605 10.4183 3.92374 10.6981 3.51277C10.7282 3.46851 10.6856 3.39041 10.6284 3.40959Z" fill="#EAE9E8"/>
<path d="M9.49218 4.99142C8.99742 5.25775 8.78972 5.84181 8.79502 6.37736C8.7955 6.42422 8.86532 6.43068 8.88219 6.39096C9.07639 5.93226 9.37271 5.53373 9.57849 5.0812C9.60066 5.0325 9.54551 4.96278 9.49218 4.99142Z" fill="#EAE9E8"/>
<path d="M8.57679 6.74148C8.10922 7.05313 7.95725 7.65406 8.01289 8.18682C8.01781 8.23339 8.08791 8.23329 8.10093 8.19212C8.25106 7.71722 8.50862 7.29265 8.671 6.82277C8.68845 6.77214 8.62703 6.70792 8.57669 6.74148H8.57679Z" fill="#EAE9E8"/>
<path d="M7.87788 8.64142C7.47096 9.02886 7.42468 9.64705 7.57105 10.1622C7.58388 10.2073 7.65292 10.195 7.6587 10.1522C7.72495 9.65852 7.90565 9.19596 7.98472 8.70525C7.99321 8.65241 7.92166 8.59966 7.87788 8.64142Z" fill="#EAE9E8"/>
<path d="M7.46371 10.6056C7.13114 11.0585 7.1941 11.6751 7.4288 12.1566C7.44934 12.1987 7.5152 12.1746 7.51337 12.1314C7.49187 11.6338 7.58849 11.1467 7.58019 10.6496C7.57933 10.5961 7.49948 10.5568 7.46381 10.6056H7.46371Z" fill="#EAE9E8"/>
<path d="M7.37983 12.6061C7.10694 13.0973 7.24714 13.7011 7.54057 14.1491C7.56622 14.1884 7.62851 14.1561 7.62128 14.1135C7.53729 13.6226 7.57172 13.1272 7.50084 12.6351C7.49323 12.5821 7.40914 12.5532 7.37983 12.606V12.6061Z" fill="#EAE9E8"/>
<path d="M7.53489 14.6031C7.335 15.1283 7.56006 15.7059 7.91452 16.1074C7.94557 16.1425 8.00256 16.1017 7.98935 16.0606C7.83603 15.5867 7.79939 15.0914 7.6589 14.6146C7.64376 14.5633 7.55649 14.5466 7.53489 14.6031Z" fill="#EAE9E8"/>
<path d="M7.94396 16.5627C7.7917 17.1035 8.06748 17.6588 8.45627 18.027C8.49031 18.0592 8.54354 18.0135 8.52657 17.9738C8.33159 17.5155 8.25089 17.0254 8.06835 16.5631C8.04868 16.5133 7.96026 16.5045 7.94386 16.5627H7.94396Z" fill="#EAE9E8"/>
<path d="M8.47194 18.3949C8.38728 18.9504 8.72911 19.4675 9.16023 19.7852C9.19803 19.813 9.24518 19.7611 9.22349 19.7238C8.97365 19.2929 8.83344 18.8165 8.59556 18.38C8.56991 18.333 8.481 18.3352 8.47194 18.395V18.3949Z" fill="#EAE9E8"/>
<path d="M14.2087 1.03276C13.6653 1.08695 13.2608 1.5334 13.0655 2.01602C13.0484 2.05825 13.1087 2.09017 13.1386 2.06076C13.4842 1.72163 13.8989 1.47478 14.2525 1.14558C14.2906 1.11009 14.2672 1.02697 14.2086 1.03276H14.2087Z" fill="#EAE9E8"/>
<path d="M14.209 1.03276C13.9947 1.05416 13.8358 1.11366 13.6689 1.23525C13.6689 1.23525 13.8004 1.42039 13.8457 1.48297C13.9853 1.37584 14.1233 1.26621 14.2529 1.14558C14.291 1.11009 14.2676 1.02697 14.209 1.03276Z" fill="#CCCCCC"/>
<path d="M13.4526 0.969847C13.5117 0.920766 13.5389 0.886824 13.5954 0.834175C13.6335 0.798691 13.6101 0.715571 13.5516 0.721357C13.4459 0.731867 13.3851 0.736013 13.2988 0.767931C13.3553 0.830704 13.4069 0.897913 13.4526 0.969751V0.969847Z" fill="#CCCCCC"/>
<path d="M12.6697 2.22818C12.1352 2.34022 11.7808 2.82747 11.6383 3.32821C11.6259 3.37199 11.6891 3.39735 11.7158 3.36485C12.0231 2.99072 12.409 2.70086 12.7253 2.33569C12.7594 2.29635 12.7272 2.21622 12.6697 2.22827V2.22818Z" fill="#EAE9E8"/>
<path d="M11.3691 3.64544C10.8512 3.81881 10.5557 4.34385 10.4722 4.85761C10.4649 4.90264 10.5308 4.92039 10.5534 4.885C10.8152 4.47779 11.1649 4.14502 11.4368 3.74562C11.4661 3.70262 11.4247 3.62673 11.369 3.64534L11.3691 3.64544Z" fill="#EAE9E8"/>
<path d="M10.2646 5.18278C9.78372 5.44158 9.58181 6.00925 9.58701 6.52985C9.58749 6.57546 9.65538 6.58173 9.67177 6.54306C9.86048 6.09719 10.1484 5.70994 10.3485 5.27004C10.37 5.2227 10.3164 5.15491 10.2647 5.18278H10.2646Z" fill="#EAE9E8"/>
<path d="M9.37513 6.88391C8.92067 7.18679 8.77295 7.77094 8.82704 8.28865C8.83177 8.33397 8.89994 8.33388 8.91267 8.29386C9.05866 7.83227 9.30898 7.41956 9.46683 6.96289C9.4838 6.91371 9.42402 6.85132 9.37522 6.88391H9.37513Z" fill="#EAE9E8"/>
<path d="M8.69623 8.73043C8.30068 9.10698 8.25575 9.70781 8.39808 10.2086C8.41051 10.2524 8.47772 10.2406 8.48332 10.1989C8.54773 9.71909 8.72332 9.26955 8.80017 8.79253C8.80847 8.74114 8.73885 8.68993 8.69632 8.73043H8.69623Z" fill="#EAE9E8"/>
<path d="M8.29316 10.6394C7.96994 11.0796 8.03117 11.679 8.25922 12.147C8.27918 12.188 8.3432 12.1645 8.34137 12.1226C8.32045 11.6389 8.41446 11.1655 8.40627 10.6824C8.4054 10.6303 8.32787 10.5921 8.29316 10.6394Z" fill="#EAE9E8"/>
<path d="M8.21167 12.584C7.9464 13.0614 8.08274 13.6483 8.36788 14.0838C8.39285 14.1219 8.45341 14.0906 8.44637 14.0492C8.36469 13.572 8.39825 13.0905 8.32931 12.6122C8.32188 12.5607 8.24021 12.5326 8.21167 12.584Z" fill="#EAE9E8"/>
<path d="M8.3619 14.525C8.1676 15.0354 8.38639 15.5967 8.73082 15.987C8.761 16.0211 8.81645 15.9815 8.80353 15.9416C8.65455 15.4809 8.61887 14.9996 8.48233 14.5362C8.46768 14.4862 8.38272 14.4701 8.3619 14.525Z" fill="#EAE9E8"/>
<path d="M8.75918 16.4297C8.61117 16.9554 8.87923 17.495 9.25713 17.853C9.2902 17.8843 9.34189 17.8398 9.3255 17.8012C9.13602 17.3557 9.05753 16.8794 8.8802 16.43C8.86111 16.3816 8.77509 16.3731 8.75918 16.4296V16.4297Z" fill="#EAE9E8"/>
<path d="M9.27333 18.2104C9.19107 18.7503 9.52326 19.253 9.94233 19.5617C9.97897 19.5887 10.0249 19.5383 10.0039 19.502C9.76105 19.0831 9.6247 18.6201 9.39357 18.1959C9.3686 18.1502 9.28229 18.1523 9.27342 18.2103L9.27333 18.2104Z" fill="#EAE9E8"/>
<path d="M7.91452 16.1075C7.68184 15.8439 7.5049 15.5051 7.46777 15.1548C7.57211 15.1442 7.67567 15.1318 7.7774 15.1177C7.8393 15.4335 7.88974 15.752 7.98973 16.0606C8.00294 16.1013 7.94547 16.142 7.91452 16.1075Z" fill="#CCCCCC"/>
<path d="M7.94396 16.5627C7.7917 17.1035 8.06748 17.6588 8.45627 18.027C8.49031 18.0592 8.54354 18.0135 8.52657 17.9738C8.33159 17.5155 8.25089 17.0254 8.06835 16.5631C8.04868 16.5133 7.96026 16.5045 7.94386 16.5627H7.94396Z" fill="#CCCCCC"/>
<path d="M8.85755 18.9418C8.74251 18.9348 8.62757 18.9268 8.51253 18.9153C8.4621 18.7499 8.44446 18.5747 8.47184 18.3952C8.48158 18.335 8.57 18.3333 8.59565 18.3802C8.69468 18.5624 8.7779 18.7517 8.85755 18.9419V18.9418Z" fill="#CCCCCC"/>
<path d="M8.73106 15.9871C8.49838 15.7235 8.32327 15.3821 8.29492 15.0309C8.39395 15.0123 8.49134 14.9919 8.5868 14.9698C8.65228 15.2954 8.70088 15.6235 8.80444 15.9412C8.81688 15.9818 8.76201 16.0208 8.73106 15.9871Z" fill="#CCCCCC"/>
<path d="M8.76016 16.4297C8.61214 16.9554 8.88021 17.495 9.25811 17.853C9.29118 17.8843 9.34286 17.8398 9.32647 17.8012C9.13699 17.3557 9.0585 16.8794 8.88117 16.43C8.86208 16.3816 8.77607 16.3731 8.76016 16.4296V16.4297Z" fill="#CCCCCC"/>
<path d="M9.73877 18.9551C9.63086 18.9587 9.522 18.9596 9.41323 18.9596C9.29289 18.7313 9.23272 18.4757 9.27341 18.2103C9.28228 18.1529 9.36897 18.1502 9.39375 18.1962C9.5273 18.4412 9.62903 18.6995 9.73877 18.9551Z" fill="#CCCCCC"/>
</g>
<defs>
<linearGradient id="paint0_linear_156_30136" x1="10.0008" y1="0.00610352" x2="10.0008" y2="20.005" gradientUnits="userSpaceOnUse">
<stop stop-color="#19CEFD"/>
<stop offset="1" stop-color="#0073D1"/>
</linearGradient>
<linearGradient id="paint1_linear_156_30136" x1="9.50235" y1="0" x2="9.50235" y2="18.9596" gradientUnits="userSpaceOnUse">
<stop stop-color="#19CEFD"/>
<stop offset="1" stop-color="#0073D1"/>
</linearGradient>
<linearGradient id="paint2_linear_156_30136" x1="7.62709" y1="0.00427246" x2="7.62709" y2="15.2118" gradientUnits="userSpaceOnUse">
<stop stop-color="#19CEFD"/>
<stop offset="1" stop-color="#0073D1"/>
</linearGradient>
<linearGradient id="paint3_linear_156_30136" x1="4.47818" y1="2.43457" x2="4.47818" y2="7.87785" gradientUnits="userSpaceOnUse">
<stop stop-color="#19CEFD"/>
<stop offset="1" stop-color="#0073D1"/>
</linearGradient>
<linearGradient id="paint4_linear_156_30136" x1="9.58669" y1="0.228882" x2="9.58669" y2="19.9106" gradientUnits="userSpaceOnUse">
<stop stop-color="#19CEFD"/>
<stop offset="1" stop-color="#0073D1"/>
</linearGradient>
<linearGradient id="paint5_linear_156_30136" x1="9.0463" y1="0.151733" x2="9.0463" y2="19.8343" gradientUnits="userSpaceOnUse">
<stop stop-color="#19CEFD"/>
<stop offset="1" stop-color="#0073D1"/>
</linearGradient>
<linearGradient id="paint6_linear_156_30136" x1="9.29445" y1="0.258667" x2="9.29445" y2="19.8735" gradientUnits="userSpaceOnUse">
<stop stop-color="#19CEFD"/>
<stop offset="1" stop-color="#0073D1"/>
</linearGradient>
<clipPath id="clip0_156_30136">
<rect width="20" height="20.005" fill="white"/>
</clipPath>
</defs>
</svg>
