<svg width="33" height="33" viewBox="0 0 33 33" fill="none" xmlns="http://www.w3.org/2000/svg">
<path d="M23.6748 24.5006C23.3035 24.8719 22.7999 25.0805 22.2748 25.0805C21.7497 25.0805 21.2461 24.8719 20.8748 24.5006L16.5006 19.5011L12.1265 24.499C11.9432 24.6853 11.7248 24.8335 11.4839 24.935C11.2431 25.0365 10.9845 25.0893 10.7231 25.0903C10.4617 25.0914 10.2027 25.0407 9.96106 24.9412C9.71938 24.8416 9.4998 24.6952 9.31498 24.5104C9.13016 24.3256 8.98376 24.106 8.88423 23.8643C8.7847 23.6227 8.734 23.3637 8.73506 23.1023C8.73613 22.8409 8.78893 22.5823 8.89043 22.3415C8.99193 22.1006 9.14011 21.8822 9.32643 21.6989L13.8771 16.5014L9.32478 11.3006C9.13846 11.1173 8.99028 10.8989 8.88878 10.6581C8.78728 10.4172 8.73448 10.1586 8.73341 9.89727C8.73235 9.63589 8.78305 9.3769 8.88258 9.13522C8.98211 8.89354 9.12851 8.67395 9.31333 8.48913C9.49815 8.30431 9.71773 8.15792 9.95941 8.05838C10.2011 7.95885 10.4601 7.90816 10.7215 7.90922C10.9828 7.91029 11.2414 7.96309 11.4823 8.06459C11.7231 8.16608 11.9415 8.31426 12.1248 8.50058L16.5006 13.5017L20.8748 8.50058C21.0581 8.31426 21.2765 8.16608 21.5173 8.06459C21.7582 7.96309 22.0168 7.91029 22.2781 7.90922C22.5395 7.90816 22.7985 7.95885 23.0402 8.05838C23.2819 8.15792 23.5015 8.30431 23.6863 8.48913C23.8711 8.67395 24.0175 8.89354 24.117 9.13522C24.2166 9.3769 24.2672 9.63589 24.2662 9.89727C24.2651 10.1586 24.2123 10.4172 24.1108 10.6581C24.0093 10.8989 23.8611 11.1173 23.6748 11.3006L19.1241 16.5014L23.6748 21.6989C23.8589 21.8828 24.005 22.1012 24.1046 22.3416C24.2042 22.5819 24.2555 22.8396 24.2555 23.0998C24.2555 23.36 24.2042 23.6176 24.1046 23.858C24.005 24.0984 23.8589 24.3167 23.6748 24.5006Z" fill="#EDE3E3"/>
</svg>
