<svg width="60" height="60" viewBox="0 0 60 60" fill="none" xmlns="http://www.w3.org/2000/svg">
<path d="M18.1798 17.9175L13.3795 17.2199L11.2329 12.8702C11.0976 12.596 10.8184 12.4226 10.5128 12.4226C10.2072 12.4226 9.92802 12.5962 9.79278 12.8702L7.64609 17.22L2.84579 17.9176C2.5433 17.9615 2.29197 18.1734 2.19756 18.4641C2.10304 18.7547 2.18185 19.0739 2.40072 19.2872L5.87427 22.673L5.05432 27.4539C5.0027 27.7552 5.12647 28.0596 5.37378 28.2392C5.51373 28.3409 5.67937 28.3926 5.84582 28.3926C5.97361 28.3926 6.10197 28.3621 6.21943 28.3004L10.5129 26.0432L14.8064 28.3004C15.0767 28.4425 15.4048 28.4189 15.6521 28.2392C15.8993 28.0596 16.0232 27.7552 15.9715 27.4539L15.1516 22.673L18.625 19.2872C18.8439 19.0739 18.9227 18.7547 18.8282 18.4641C18.7335 18.1733 18.4823 17.9615 18.1798 17.9175Z" fill="#FDCE0B"/>
<path d="M37.9279 17.9176L33.1276 17.22L30.9808 12.8702C30.8454 12.5962 30.5663 12.4226 30.2607 12.4226C29.955 12.4226 29.676 12.5962 29.5407 12.8702L27.3941 17.2199L22.5938 17.9175C22.2913 17.9614 22.04 18.1733 21.9456 18.464C21.8511 18.7546 21.9299 19.0738 22.1488 19.2871L25.6223 22.6729L24.8024 27.4538C24.7507 27.755 24.8745 28.0595 25.1218 28.2391C25.2617 28.3408 25.4274 28.3925 25.5939 28.3925C25.7217 28.3925 25.8499 28.362 25.9674 28.3003L30.2607 26.0431L34.5541 28.3003C34.8246 28.4424 35.1526 28.4188 35.3998 28.2391C35.6471 28.0595 35.7709 27.755 35.7192 27.4538L34.8994 22.6729L38.3728 19.2871C38.5917 19.0738 38.6705 18.7546 38.576 18.464C38.4815 18.1733 38.2304 17.9616 37.9279 17.9176Z" fill="#FDCE0B"/>
<path d="M57.3219 18.4641C57.2275 18.1734 56.9762 17.9615 56.6738 17.9176L51.8735 17.22L49.7267 12.8702C49.5914 12.5962 49.3123 12.4226 49.0067 12.4226C48.701 12.4226 48.4219 12.5962 48.2866 12.8702L46.1401 17.2199L41.3398 17.9175C41.0373 17.9614 40.7861 18.1733 40.6917 18.464C40.5972 18.7546 40.6759 19.0738 40.8948 19.2871L44.3682 22.6729L43.5484 27.4538C43.4968 27.755 43.6206 28.0595 43.8679 28.2391C44.1152 28.4188 44.443 28.4425 44.7135 28.3003L49.0067 26.0431L53.3004 28.3003C53.4178 28.3621 53.5461 28.3925 53.6739 28.3925C53.8405 28.3925 54.0061 28.3408 54.1459 28.2391C54.3933 28.0595 54.517 27.755 54.4654 27.4537L53.6453 22.6729L57.1188 19.2871C57.3376 19.0739 57.4164 18.7547 57.3219 18.4641Z" fill="#FDCE0B"/>
<path d="M28.0528 36.9637L23.2525 36.2663L21.1058 31.9165C20.9705 31.6423 20.6913 31.4689 20.3857 31.4689C20.0802 31.4689 19.801 31.6424 19.6657 31.9165L17.5191 36.2663L12.7188 36.9637C12.4163 37.0078 12.165 37.2195 12.0706 37.5103C11.9761 37.801 12.0549 38.12 12.2738 38.3335L15.7473 41.7194L14.9274 46.5003C14.8757 46.8015 14.9995 47.106 15.2468 47.2857C15.494 47.4654 15.8221 47.489 16.0925 47.3469L20.3859 45.0895L24.6794 47.3469C24.7968 47.4086 24.9251 47.4391 25.053 47.4391C25.2194 47.4391 25.3852 47.3874 25.525 47.2857C25.7723 47.1061 25.8961 46.8015 25.8445 46.5003L25.0245 41.7194L28.4981 38.3335C28.7169 38.1201 28.7958 37.801 28.7012 37.5103C28.6066 37.2195 28.3553 37.0077 28.0528 36.9637Z" fill="#FDCE0B"/>
<path d="M47.4469 37.5103C47.3525 37.2197 47.1012 37.0078 46.7988 36.9637L41.9985 36.2663L39.8517 31.9165C39.7164 31.6423 39.4373 31.4689 39.1317 31.4689C38.826 31.4689 38.5469 31.6424 38.4116 31.9165L36.2651 36.2663L31.4648 36.9637C31.1623 37.0078 30.9111 37.2195 30.8167 37.5103C30.7222 37.8011 30.8009 38.12 31.0198 38.3335L34.4932 41.7194L33.6734 46.5003C33.6218 46.8017 33.7456 47.106 33.9929 47.2857C34.2401 47.4654 34.568 47.4891 34.8385 47.3469L39.1317 45.0895L43.4253 47.3469C43.5428 47.4086 43.6711 47.4391 43.7989 47.4391C43.9655 47.4391 44.1311 47.3874 44.2709 47.2857C44.5183 47.1061 44.642 46.8015 44.5904 46.5003L43.7703 41.7194L47.2438 38.3335C47.4626 38.1201 47.5415 37.801 47.4469 37.5103Z" fill="#FDCE0B"/>
<path d="M57.1182 19.2871L53.6447 22.6733L54.4649 27.4546C54.5164 27.7563 54.3927 28.0602 54.1449 28.2403C54.0048 28.3413 53.8398 28.3929 53.6734 28.3929C53.5449 28.3929 53.4165 28.3631 53.2995 28.3011L52.5217 27.8926C52.742 27.7115 52.851 27.4235 52.8016 27.1391L51.9814 22.3579L55.4549 18.9716C55.674 18.7582 55.752 18.4394 55.6579 18.1491C55.6006 17.9701 55.4825 17.8199 55.33 17.7224L56.6732 17.9173C56.9761 17.9622 57.2273 18.1731 57.3212 18.4646C57.4153 18.7548 57.3373 19.0737 57.1182 19.2871Z" fill="#FEC20F"/>
<path d="M38.3731 19.2871L34.8996 22.6733L35.7198 27.4546C35.7713 27.7563 35.6475 28.0602 35.3998 28.2403C35.2597 28.3413 35.0946 28.3929 34.9283 28.3929C34.7998 28.3929 34.6714 28.3631 34.5544 28.3011L33.7766 27.8926C33.9969 27.7115 34.1058 27.4235 34.0565 27.1391L33.2363 22.3579L36.7098 18.9716C36.9289 18.7582 37.0069 18.4394 36.9128 18.1491C36.8554 17.9701 36.7374 17.8199 36.5848 17.7224L37.9281 17.9173C38.2309 17.9622 38.4822 18.1731 38.5761 18.4646C38.6702 18.7548 38.5922 19.0737 38.3731 19.2871Z" fill="#FEC20F"/>
<path d="M18.625 19.2871L15.1516 22.6733L15.9718 27.4546C16.0233 27.7563 15.8995 28.0602 15.6517 28.2403C15.5117 28.3413 15.3466 28.3929 15.1803 28.3929C15.0518 28.3929 14.9233 28.3631 14.8063 28.3011L14.0286 27.8926C14.2488 27.7115 14.3578 27.4235 14.3085 27.1391L13.4883 22.3579L16.9617 18.9716C17.1808 18.7582 17.2588 18.4394 17.1648 18.1491C17.1074 17.9701 16.9894 17.8199 16.8368 17.7224L18.1801 17.9173C18.4829 17.9622 18.7341 18.1731 18.8281 18.4646C18.9221 18.7548 18.8441 19.0737 18.625 19.2871Z" fill="#FEC20F"/>
<path d="M28.4981 38.3332L25.0246 41.7195L25.8448 46.5008C25.8963 46.8024 25.7725 47.1064 25.5248 47.2866C25.3847 47.3874 25.2196 47.4392 25.0533 47.4392C24.9248 47.4392 24.7964 47.4093 24.6794 47.3473L23.9016 46.9388C24.1219 46.7578 24.2308 46.4696 24.1815 46.1854L23.3613 41.404L26.8348 38.0178C27.0539 37.8045 27.1319 37.4856 27.0378 37.1953C26.9804 37.0162 26.8624 36.8662 26.7098 36.7687L28.0531 36.9636C28.3559 37.0084 28.6072 37.2194 28.7011 37.5107C28.7952 37.8011 28.7172 38.12 28.4981 38.3332Z" fill="#FEC20F"/>
<path d="M47.2442 38.3332L43.7707 41.7195L44.5909 46.5008C44.6424 46.8024 44.5186 47.1064 44.2709 47.2866C44.1308 47.3874 43.9657 47.4392 43.7994 47.4392C43.6709 47.4392 43.5424 47.4093 43.4254 47.3473L42.6477 46.9388C42.868 46.7578 42.9769 46.4696 42.9276 46.1854L42.1074 41.404L45.5809 38.0178C45.8 37.8045 45.878 37.4856 45.7839 37.1953C45.7265 37.0162 45.6085 36.8662 45.4559 36.7687L46.7992 36.9636C47.102 37.0084 47.3532 37.2194 47.4472 37.5107C47.5413 37.8011 47.4633 38.12 47.2442 38.3332Z" fill="#FEC20F"/>
</svg>
