<svg width="773" height="78" viewBox="0 0 773 78" fill="none" xmlns="http://www.w3.org/2000/svg">
<path d="M772.5 77.5011H0C6.16667 62.3344 17 28.0011 20.5 15.5011C24.0852 2.6969 32 -3.09029 40 -2.99894C259 -0.498936 700.5 0.0010376 719.5 -1.49894C740.615 -3.1659 746.333 5.50107 748.5 12.0011L772.5 77.5011Z" fill="url(#paint0_linear_4_13879)"/>
<g filter="url(#filter0_i_4_13879)">
<path d="M16.4634 17.3908L-3 78L230.561 78L263 0.49967C192.466 0.168468 48.5032 -0.593296 36.925 -0.990734C25.3467 -1.38817 18.4597 11.098 16.4634 17.3908Z" fill="url(#paint1_linear_4_13879)"/>
</g>
<defs>
<filter id="filter0_i_4_13879" x="-3" y="-1" width="270" height="83" filterUnits="userSpaceOnUse" color-interpolation-filters="sRGB">
<feFlood flood-opacity="0" result="BackgroundImageFix"/>
<feBlend mode="normal" in="SourceGraphic" in2="BackgroundImageFix" result="shape"/>
<feColorMatrix in="SourceAlpha" type="matrix" values="0 0 0 0 0 0 0 0 0 0 0 0 0 0 0 0 0 0 127 0" result="hardAlpha"/>
<feOffset dx="4" dy="4"/>
<feGaussianBlur stdDeviation="2"/>
<feComposite in2="hardAlpha" operator="arithmetic" k2="-1" k3="1"/>
<feColorMatrix type="matrix" values="0 0 0 0 0 0 0 0 0 0 0 0 0 0 0 0 0 0 0.25 0"/>
<feBlend mode="normal" in2="shape" result="effect1_innerShadow_4_13879"/>
</filter>
<linearGradient id="paint0_linear_4_13879" x1="768.775" y1="27.5912" x2="-34.1268" y2="22.6953" gradientUnits="userSpaceOnUse">
<stop stop-color="#1339A2"/>
<stop offset="1" stop-color="#011A60"/>
</linearGradient>
<linearGradient id="paint1_linear_4_13879" x1="130" y1="-1" x2="129.759" y2="124.124" gradientUnits="userSpaceOnUse">
<stop stop-color="#FFF01F"/>
<stop offset="0.515625" stop-color="#FAC600"/>
<stop offset="1" stop-color="#FAC600" stop-opacity="0"/>
</linearGradient>
</defs>
</svg>
