<svg width="33" height="32" viewBox="0 0 33 32" fill="none" xmlns="http://www.w3.org/2000/svg">
<path d="M18.9698 16.0029L2.41316 31.4768C1.63784 30.9626 1.17751 30.1071 1.18565 29.1957V2.81C1.17751 1.89859 1.63784 1.04316 2.41316 0.528885L18.9698 16.0029Z" fill="#2196F3"/>
<path d="M24.763 10.5978L18.9697 16.0028L2.41309 0.528851C2.47547 0.481926 2.54045 0.438269 2.60767 0.398085C3.4827 -0.116669 4.57569 -0.133288 5.46693 0.354497L24.763 10.5978Z" fill="#4CAF50"/>
<path d="M31.7839 16.0028C31.7947 17.0317 31.2187 17.982 30.2869 18.4728L24.7631 21.4078L18.9697 16.0028L24.7631 10.5978L30.2869 13.5327C31.2187 14.0235 31.7947 14.9739 31.7839 16.0028Z" fill="#FFC107"/>
<path d="M25.0169 21.405L5.72084 31.6483C4.82763 32.1286 3.73879 32.1119 2.86158 31.6047C2.79435 31.5646 2.72937 31.5209 2.66699 31.474L19.2237 16L25.0169 21.405Z" fill="#F44336"/>
</svg>
