<svg width="78" height="89" viewBox="0 0 78 89" fill="none" xmlns="http://www.w3.org/2000/svg">
<path d="M39 0L0.886364 21.2727L0 65.5909L39.8864 88.6364L78 64.7045L77.1136 22.1591L39 0Z" fill="#011A60"/>
<path d="M18.8687 56.9397L17.2548 55.982L17.2266 24.6437L24.8521 19.6191H36.7538H37.9582H42.9881V19.6539L56.2552 19.7277L61.0211 27.767L42.9881 27.6863V33.8892L47.6393 33.9201V42.068L42.9881 42.0371V53.786L35.3626 48.7615V27.6584H24.8521V51.2986L40.103 60.5815L53.4695 52.4456L53.4595 42.0258L53.4585 42.0258V33.8779L61.0932 33.9201V42.068L61.0881 42.0679L61.1416 57.0471L61.1913 57.1527L40.1027 69.8645L18.8687 56.9397Z" fill="white"/>
</svg>
