<svg width="64" height="64" viewBox="0 0 64 64" fill="none" xmlns="http://www.w3.org/2000/svg">
<g clip-path="url(#clip0_21_12111)">
<path d="M42.9141 3.96774C42.9015 3.32784 42.6864 2.89218 42.3193 2.71528C42.3446 2.71528 42.37 2.72882 42.3952 2.74245L37.8774 -0.143694C37.5483 -0.36148 37.1054 -0.320682 36.6119 -0.021132L15.7561 12.9393C14.769 13.5519 13.9844 15.0222 13.9844 16.2339L14.0856 60.8195C14.0982 61.4185 14.2881 61.8405 14.6171 62.0447L19.0211 64.8628C18.9831 64.8355 18.9452 64.7947 18.9072 64.7403C18.9579 64.8084 19.0211 64.8628 19.097 64.9172C19.4134 65.1487 19.869 65.1215 20.3879 64.8084L41.2436 51.8479C42.2308 51.2352 43.028 49.765 43.0154 48.5533L42.9141 3.96774ZM41.1297 2.87864C41.5094 2.63352 41.8511 2.56546 42.1422 2.64714C41.8511 2.56546 41.4968 2.64714 41.1297 2.87864Z" fill="#4C5C75"/>
<path d="M42.9141 3.96774C42.9015 3.32784 42.6864 2.89218 42.3193 2.71528C42.3446 2.71528 42.37 2.72882 42.3952 2.74245L37.8774 -0.143694C37.5483 -0.36148 37.1054 -0.320682 36.6119 -0.021132L15.7561 12.9393C14.769 13.5519 13.9844 15.0222 13.9844 16.2339L14.0856 60.8195C14.0982 61.4185 14.2881 61.8405 14.6171 62.0447L19.0211 64.8628C18.9831 64.8355 18.9452 64.7947 18.9072 64.7403C18.9579 64.8084 19.0211 64.8628 19.097 64.9172C19.4134 65.1487 19.869 65.1215 20.3879 64.8084L41.2436 51.8479C42.2308 51.2352 43.028 49.765 43.0154 48.5533L42.9141 3.96774ZM41.1297 2.87864C41.5094 2.63352 41.8511 2.56546 42.1422 2.64714C41.8511 2.56546 41.4968 2.64714 41.1297 2.87864Z" fill="white"/>
<path d="M42.3939 2.73879C42.062 2.5428 41.6229 2.56592 41.1194 2.87711L20.267 15.8271C19.2816 16.4377 18.4891 17.9124 18.4997 19.1337L18.6069 63.7141C18.6069 64.3133 18.7996 64.7395 19.121 64.9354L14.6104 62.0489C14.2892 61.8416 14.0965 61.4152 14.0856 60.8162L13.9785 16.2358C13.9785 15.026 14.7711 13.5513 15.7565 12.9406L36.609 -0.0210748C37.1015 -0.320572 37.5514 -0.355119 37.8727 -0.147702L42.3939 2.73879Z" fill="white"/>
<path d="M41.1241 2.87898C42.1088 2.26735 42.9046 2.75531 42.9078 3.9725L43.0182 48.5492C43.0214 49.7664 42.2308 51.2396 41.2461 51.8511L20.3902 64.8044C19.4054 65.4161 18.6097 64.9282 18.6064 63.711L18.4961 19.1342C18.4929 17.917 19.2835 16.4438 20.2681 15.8324L41.1241 2.87898Z" fill="#4C5C75"/>
<path d="M41.7971 48.5561C41.7971 49.3108 41.2614 50.3398 40.6364 50.724L21.1728 62.8121C20.5733 63.1826 19.8208 62.7161 19.8208 61.9752L19.7188 18.8623L41.7078 5.20996L41.7971 48.5561Z" fill="white"/>
<path d="M17.3494 22.6456L17.3367 27.9687C17.3367 28.2682 17.2355 28.4996 17.0584 28.5949L16.4003 29.0169C16.2357 29.1259 15.9953 29.1123 15.7422 28.9489C15.236 28.6358 14.8184 27.8598 14.8184 27.2335L14.831 21.9241C14.8437 21.5974 14.9575 21.3659 15.1474 21.2706C15.1221 21.2706 15.1094 21.2706 15.0968 21.2842L15.7802 20.8622C15.9447 20.7669 16.1725 20.7805 16.4383 20.9439C16.9444 21.2571 17.3494 22.0195 17.3494 22.6456Z" fill="#9EA9C9"/>
<path d="M17.325 33.0872V36.2728C17.3124 36.5859 17.2238 36.8038 17.0466 36.9127L16.3759 37.3347C16.2114 37.4436 15.9836 37.4301 15.7305 37.2666C15.2116 36.9399 14.8066 36.1775 14.8066 35.5513V32.3656C14.8066 32.0525 14.9079 31.821 15.0851 31.7258C15.0978 31.7122 15.123 31.7122 15.1357 31.6986C15.1357 31.6849 15.1484 31.6849 15.161 31.6849L15.7558 31.3038C15.9203 31.1949 16.1481 31.2085 16.4139 31.3718C16.9074 31.6849 17.3377 32.4609 17.325 33.0872Z" fill="#9EA9C9"/>
<path d="M17.325 33.0872V36.2728C17.3124 36.5859 17.2238 36.8038 17.0466 36.9127L16.3759 37.3347C16.2114 37.4436 15.9836 37.4301 15.7305 37.2666C15.2116 36.9399 14.8066 36.1775 14.8066 35.5513V32.3656C14.8066 32.0525 14.9079 31.821 15.0851 31.7258C15.0978 31.7122 15.123 31.7122 15.1357 31.6986C15.1357 31.6849 15.1484 31.6849 15.161 31.6849L15.7558 31.3038C15.9203 31.1949 16.1481 31.2085 16.4139 31.3718C16.9074 31.6849 17.3377 32.4609 17.325 33.0872Z" fill="#9EA9C9"/>
<path d="M17.3494 22.6456L17.3367 27.9687C17.3367 28.2682 17.2355 28.4996 17.0584 28.5949L16.4003 29.0169C16.2357 29.1259 15.9953 29.1123 15.7422 28.9489C15.236 28.6358 14.8184 27.8598 14.8184 27.2335L14.831 21.9241C14.8437 21.5974 14.9575 21.3659 15.1474 21.2706C15.1221 21.2706 15.1094 21.2706 15.0968 21.2842L15.7802 20.8622C15.9447 20.7669 16.1725 20.7805 16.4383 20.9439C16.9444 21.2571 17.3494 22.0195 17.3494 22.6456Z" fill="#9EA9C9"/>
<path d="M17.3508 22.652L17.3413 27.9628C17.3413 28.2705 17.2363 28.4961 17.0649 28.5986L16.3977 29.0189C16.5597 28.9164 16.6647 28.6909 16.6647 28.3729L16.6837 23.0723C16.6837 22.447 16.2738 21.6781 15.7687 21.3602C15.5018 21.1962 15.2731 21.1858 15.1016 21.2884L15.7782 20.8681C15.9403 20.7655 16.1786 20.7861 16.4359 20.9398C16.9409 21.2576 17.3508 22.0267 17.3508 22.652Z" fill="#9EA9C9"/>
<path d="M15.7641 21.3615C16.2693 21.6751 16.6816 22.4436 16.68 23.0679L16.666 28.3783C16.6643 29.0101 16.2493 29.2647 15.7441 28.9509C15.233 28.6334 14.8206 27.865 14.8223 27.2331L14.8363 21.9228C14.8379 21.2984 15.253 21.044 15.7641 21.3615Z" fill="#F3F1FC"/>
<path d="M17.3218 33.0868V36.2753C17.3123 36.5931 17.2169 36.8085 17.0454 36.911L16.3783 37.3314C16.5403 37.2288 16.6451 37.0033 16.6451 36.6957L16.6547 33.5071C16.6547 32.8817 16.2449 32.1128 15.7397 31.795C15.4824 31.6309 15.2441 31.6206 15.082 31.7232L15.7492 31.3027C15.9209 31.2003 16.1495 31.2105 16.407 31.3745C16.9119 31.6924 17.3314 32.4613 17.3218 33.0868Z" fill="#9EA9C9"/>
<path d="M15.7389 31.7938C16.2441 32.1076 16.6565 32.8761 16.6549 33.5079L16.6464 36.6971C16.6448 37.3213 16.2296 37.5759 15.7246 37.2622C15.2135 36.9448 14.8011 36.1763 14.8027 35.552L14.8111 32.3627C14.8127 31.7309 15.2278 31.4764 15.7389 31.7938Z" fill="#F3F1FC"/>
<path d="M15.7578 12.9423L36.6098 -0.0195312Z" fill="white"/>
<path d="M50.0766 10.4244V12.8069C50.0766 14.3044 49.1022 16.1287 47.8873 16.8774C47.2799 17.2587 46.723 17.2858 46.318 17.0408L45.7359 16.6868C45.6599 16.646 45.5967 16.5915 45.5461 16.5098C45.255 17.7487 44.4451 19.0012 43.496 19.6002C42.8758 19.9814 42.3064 20.0086 41.9141 19.7636C41.8761 19.7364 41.8381 19.7091 41.8001 19.6819L41.3446 19.396C41.2686 19.3552 41.2054 19.2871 41.142 19.2191C40.8637 20.4715 40.0537 21.7376 39.0919 22.323C38.4845 22.7042 37.9276 22.7314 37.5353 22.4864C37.4847 22.4592 37.4467 22.4319 37.4088 22.4047L36.9532 22.1188C36.8772 22.078 36.814 22.0235 36.7507 21.9418C36.4723 23.1943 35.6497 24.4604 34.7006 25.0458C34.0805 25.427 33.511 25.4542 33.1187 25.2091C33.0807 25.182 33.0428 25.1547 33.0048 25.1275L32.5492 24.8416C32.4733 24.8007 32.41 24.7327 32.3467 24.6646C32.0683 25.9035 31.2583 27.1695 30.2965 27.7686C29.6638 28.1633 29.0943 28.177 28.6894 27.8911L28.1578 27.5644C27.7529 27.3193 27.5124 26.7884 27.5124 26.0532L27.4998 24.3923L19.7168 19.5458V18.8242C19.844 18.7454 43.1884 4.28808 41.6989 5.21028L49.4945 10.0705L50.0766 10.4244Z" fill="#F45170"/>
<path d="M37.3086 7.93164L37.3105 8.65375L45.1001 13.5062L45.0982 12.7841L37.3086 7.93164Z" fill="#AFB2B9"/>
<path d="M49.4936 10.0687V10.7903L45.1022 13.513V12.7915L37.3066 7.93128L41.698 5.2085L49.4936 10.0687Z" fill="#F45170"/>
<path d="M45.0977 12.7821L45.0996 13.5042L49.4947 10.7841L49.4928 10.062L45.0977 12.7821Z" fill="#7A7C81"/>
<path d="M37.3086 7.93151L45.0982 12.784L49.4933 10.0639L41.7037 5.21143L37.3086 7.93151Z" fill="#F45170"/>
<path d="M32.9082 10.6543L32.9101 11.3764L40.6997 16.2289L40.6978 15.5068L32.9082 10.6543Z" fill="#3B475A"/>
<path d="M40.6973 15.5065L40.6992 16.2287L45.0996 13.5053L45.0977 12.7832L40.6973 15.5065Z" fill="#29313F"/>
<path d="M32.9082 10.655L40.6978 15.5074L45.0982 12.7841L37.3086 7.93164L32.9082 10.655Z" fill="#FFD06C"/>
<path d="M28.5137 13.375L28.5156 14.0971L36.3052 18.9496L36.3033 18.2275L28.5137 13.375Z" fill="#AFB2B9"/>
<path d="M36.3027 18.2254L36.3046 18.9476L40.6998 16.2275L40.6979 15.5054L36.3027 18.2254Z" fill="#7A7C81"/>
<path d="M28.5137 13.3739L36.3033 18.2263L40.6984 15.5063L32.9088 10.6538L28.5137 13.3739Z" fill="#F45170"/>
<path d="M24.1172 16.0967L24.1191 16.8188L31.9087 21.6713L31.9068 20.9491L24.1172 16.0967Z" fill="#3B475A"/>
<path d="M31.9062 20.9471L31.9082 21.6692L36.3033 18.9492L36.3014 18.2271L31.9062 20.9471Z" fill="#29313F"/>
<path d="M24.1172 16.0956L31.9068 20.948L36.3019 18.228L28.5123 13.3755L24.1172 16.0956Z" fill="#FFD06C"/>
<path d="M31.9038 20.9447V21.6663L27.5124 24.3891L19.7168 19.5425V18.8209L24.1209 16.0981L31.9038 20.9447Z" fill="#CC104A"/>
<path d="M19.7168 18.8164L19.7187 19.5385L27.5083 24.391L27.5064 23.6689L19.7168 18.8164Z" fill="#DF3260"/>
<path d="M27.5059 23.6701L27.5078 24.3922L31.9082 21.6689L31.9063 20.9468L27.5059 23.6701Z" fill="#DF3260"/>
<path d="M19.7168 18.8166L27.5064 23.6691L31.9068 20.9457L24.1172 16.0933L19.7168 18.8166Z" fill="#F45170"/>
<path d="M46.3186 17.0405L45.7361 16.6777C45.341 16.4315 45.0957 15.9086 45.0938 15.166L45.6762 15.5288C45.6782 16.2714 45.9234 16.7943 46.3186 17.0405Z" fill="#DF3260"/>
<path d="M45.6766 15.5281L45.0942 15.1652L45.0879 12.7866L45.6703 13.1494L45.6766 15.5281Z" fill="#8FABFE"/>
<path d="M45.6703 13.1496L45.0879 12.7868L49.4883 10.0635L50.0707 10.4263L45.6703 13.1496Z" fill="#E93565"/>
<path d="M50.0703 10.4258L50.0766 12.8044C50.0806 14.2992 49.0971 16.1251 47.8836 16.8762C46.67 17.6272 45.6802 17.0225 45.6762 15.5277L45.6699 13.1491L50.0703 10.4258Z" fill="#CC104A"/>
<path d="M41.9241 19.7607L41.3416 19.3979C40.9465 19.1517 40.7012 18.6288 40.6992 17.8862L41.2817 18.2491C41.2836 18.9916 41.5289 19.5145 41.9241 19.7607Z" fill="#FEBC1F"/>
<path d="M41.2821 18.2497L40.6996 17.8869L40.6934 15.5083L41.2758 15.8711L41.2821 18.2497Z" fill="#FFD06C"/>
<path d="M41.2758 15.8705L40.6934 15.5077L45.0885 12.7876L45.6709 13.1504L41.2758 15.8705Z" fill="#FEBC1F"/>
<path d="M45.6705 13.1499L45.6768 15.5285C45.6808 17.0233 44.7026 18.846 43.4891 19.597C42.2755 20.3481 41.2856 19.7434 41.2817 18.2486L41.2754 15.87L45.6705 13.1499Z" fill="#F9A83D"/>
<path d="M37.5295 22.4832L36.9471 22.1204C36.5517 21.8741 36.3067 21.3497 36.3047 20.6055L36.8871 20.9683C36.8891 21.7125 37.1341 22.2369 37.5295 22.4832Z" fill="#DF3260"/>
<path d="M36.8876 20.9695L36.3051 20.6066L36.2988 18.228L36.8813 18.5909L36.8876 20.9695Z" fill="#8FABFE"/>
<path d="M36.8813 18.5907L36.2988 18.2279L40.694 15.5078L41.2764 15.8706L36.8813 18.5907Z" fill="#E93565"/>
<path d="M41.276 15.8711L41.2823 18.2497C41.2862 19.7445 40.3028 21.5704 39.0892 22.3215C37.8757 23.0725 36.8911 22.4646 36.8871 20.9698L36.8809 18.5912L41.276 15.8711Z" fill="#CC104A"/>
<path d="M33.1298 25.2043L32.543 24.841C32.1546 24.593 31.9067 24.0703 31.9067 23.3263L31.8984 20.9521L32.4769 21.3154L32.4851 23.6894C32.4851 24.4336 32.7331 24.9562 33.1298 25.2043Z" fill="#FEBC1F"/>
<path d="M28.0844 24.0341L27.502 23.6713L31.8971 20.9512L32.4795 21.314L28.0844 24.0341Z" fill="#E93565"/>
<path d="M36.8809 18.5908L36.8872 20.9694C36.8911 22.4642 35.9077 24.2902 34.6941 25.0412C33.4806 25.7922 32.4907 25.1875 32.4868 23.6928L32.4805 21.3142L36.8809 18.5908Z" fill="#F9A83D"/>
<path d="M32.4809 21.3118L31.8984 20.9489L36.2988 18.2256L36.8813 18.5884L32.4809 21.3118Z" fill="#FEBC1F"/>
<path d="M28.7333 27.924L28.1548 27.5608C27.7581 27.3127 27.5102 26.7901 27.5102 26.0459L27.502 23.6719L28.0887 24.0351V26.4092C28.0969 27.1533 28.3366 27.6759 28.7333 27.924Z" fill="#DF3260"/>
<path d="M32.4811 21.3135L32.4874 23.6921C32.4913 25.1869 31.5132 27.0095 30.2996 27.7606C29.0861 28.5116 28.0962 27.9069 28.0922 26.4122L28.0859 24.0336L32.4811 21.3135Z" fill="#CC104A"/>
<path d="M19.7376 28.4891L19.7188 19.54L27.5083 24.3925V26.2823L19.7376 28.4891Z" fill="#E93565"/>
<path d="M28.9265 49.8291C29.0906 49.966 29.1899 50.2141 29.1908 50.5531C29.1928 51.3057 28.7045 52.2198 28.0922 52.6002C27.4833 52.9783 26.9883 52.6749 26.9863 51.9223C26.9854 51.5832 27.0838 51.2124 27.2472 50.8721L28.9265 49.8291Z" fill="#4C5C75"/>
<path d="M36.4929 45.1289C36.657 45.2658 36.7563 45.5139 36.7572 45.8529C36.7592 46.6055 36.2709 47.5196 35.6586 47.9C35.0497 48.2781 34.5547 47.9747 34.5527 47.2221C34.5518 46.883 34.6502 46.5122 34.8136 46.1719L36.4929 45.1289Z" fill="#4C5C75"/>
<path d="M38.1982 31.5889C38.5342 31.3803 38.7975 31.572 38.7636 32.009L38.1261 40.134C38.0956 40.5082 37.8548 40.9263 37.5644 41.1067L26.5006 47.9783C26.5005 47.9553 26.4994 47.9329 26.4965 47.9116L25.4141 39.529L38.1982 31.5889ZM29.3945 43.7115L29.3834 39.5289C29.3827 39.265 29.2072 39.1574 28.9938 39.29C28.7733 39.4269 28.6024 39.7497 28.6031 40.0135L28.6142 44.1961C28.6149 44.4686 28.7869 44.5741 29.0073 44.4372C29.2208 44.3046 29.3952 43.984 29.3945 43.7115ZM32.2987 41.9077L32.2877 37.7251C32.287 37.4612 32.1115 37.3536 31.898 37.4862C31.6811 37.6209 31.5067 37.9458 31.5074 38.2097L31.5184 42.3923C31.5192 42.6648 31.6947 42.7681 31.9116 42.6333C32.1251 42.5008 32.2994 42.1802 32.2987 41.9077ZM35.2065 40.1017L35.1955 35.9191C35.1948 35.6552 35.0193 35.5476 34.8058 35.6802C34.5924 35.8128 34.418 36.1377 34.4187 36.4015L34.4297 40.5842C34.4304 40.8567 34.6059 40.9599 34.8194 40.8274C35.0328 40.6948 35.2072 40.3742 35.2065 40.1017Z" fill="#B28AFD"/>
<path d="M38.9747 42.723C38.8794 42.6631 38.7544 42.6717 38.6259 42.7509L26.0567 50.5577C25.9433 50.6284 25.8552 50.6245 25.8032 50.5421C25.7931 50.5274 25.7122 50.3961 25.8177 50.1172L26.5102 48.3001C26.5528 48.1844 26.5745 48.0764 26.5745 47.9777C26.5745 47.9513 26.573 47.9249 26.5694 47.9L25.4869 39.5176L25.479 39.4531C25.4746 39.4065 25.4624 39.3591 25.4429 39.3164L24.8124 37.981C24.7416 37.8256 24.6297 37.7192 24.4889 37.6733C24.3083 37.6127 24.0939 37.6562 23.8815 37.7891L22.3946 38.7128C22.1556 38.8611 21.9693 39.2084 21.9707 39.5028C21.9707 39.6613 22.0242 39.781 22.1216 39.8408C22.2177 39.9022 22.3433 39.8905 22.4704 39.8113L23.9711 38.8821L24.5719 40.1663L25.6299 48.3576L25.0211 49.9548C24.7821 50.5771 24.7749 51.1636 25.0009 51.5249C25.1359 51.7377 25.3302 51.845 25.5598 51.845C25.7346 51.845 25.9296 51.7828 26.1332 51.6562L38.7017 43.8494C38.94 43.7018 39.1271 43.3546 39.1256 43.0593C39.1256 42.9024 39.0715 42.7828 38.9747 42.723Z" fill="#E3E7F0"/>
<path d="M52.5815 18.6983V24.8926C52.5815 25.5052 52.1766 26.2403 51.6957 26.5534L44.5961 30.8963L42.875 35.2936L41.6601 34.5584L41.7487 32.6525L41.5715 32.7614C41.3311 32.9112 41.1159 32.9247 40.9514 32.8295L39.7238 32.0807C39.572 31.9855 39.4707 31.7676 39.4707 31.4681V25.2737C39.4707 24.6475 39.863 23.9123 40.3566 23.6265L50.4681 17.4185C50.7212 17.2687 50.949 17.2552 51.1135 17.3505L52.2652 18.072C52.4549 18.1537 52.5689 18.3715 52.5815 18.6983Z" fill="#497BFE"/>
<path d="M52.5815 18.6983V24.8926C52.5815 25.5052 52.1766 26.2403 51.6957 26.5534L44.5961 30.8963L42.875 35.2936L41.6601 34.5584L41.7487 32.6525L41.5715 32.7614C41.3311 32.9112 41.1159 32.9247 40.9514 32.8295L39.7238 32.0807C39.572 31.9855 39.4707 31.7676 39.4707 31.4681V25.2737C39.4707 24.6475 39.863 23.9123 40.3566 23.6265L50.4681 17.4185C50.7212 17.2687 50.949 17.2552 51.1135 17.3505L52.2652 18.072C52.4549 18.1537 52.5689 18.3715 52.5815 18.6983Z" fill="#57B3FE"/>
<path d="M42.8743 35.2913L41.6621 34.557L41.8295 31.1211L43.0418 31.8553L42.8743 35.2913Z" fill="#497BFE"/>
<path d="M52.3121 18.0957C52.149 17.9877 51.9358 18.0012 51.6849 18.1496L41.5732 24.3505C41.084 24.6608 40.6825 25.3895 40.6825 25.9968V32.2042C40.6825 32.5147 40.7829 32.717 40.946 32.825L39.7303 32.0832C39.5672 31.9887 39.4668 31.7728 39.4668 31.4759V25.2684C39.4668 24.6477 39.8682 23.919 40.3575 23.6221L50.4691 17.4213C50.72 17.2729 50.9458 17.2594 51.1089 17.3538L52.3121 18.0957Z" fill="#5094FF"/>
<path d="M41.5697 24.3491L51.6849 18.1534C52.1735 17.85 52.5752 18.0963 52.5768 18.7002L52.5771 24.8978C52.5787 25.5017 52.1796 26.2454 51.691 26.5489L44.5953 30.889L42.8741 35.29L43.0415 31.854L41.5758 32.7545C41.0873 33.0579 40.6855 32.8116 40.6839 32.2077L40.6836 26.0002C40.682 25.3864 41.0812 24.6525 41.5697 24.3491Z" fill="#57B3FE"/>
<path d="M43.0223 25.6323L43.3931 26.8031L44.5852 26.0627L43.62 27.5285L43.9951 28.702L43.0297 28.4299L42.0688 29.8984L42.4322 28.2662L41.4668 27.9995L42.6589 27.2592L43.0223 25.6323Z" fill="white"/>
<path d="M46.6258 23.4282L46.9966 24.599L48.1887 23.8586L47.2235 25.3244L47.5986 26.4979L46.6332 26.2258L45.6723 27.6943L46.0358 26.0621L45.0703 25.7954L46.2624 25.0551L46.6258 23.4282Z" fill="white"/>
<path d="M50.2293 21.2256L50.6002 22.3964L51.7922 21.656L50.827 23.1218L51.2022 24.2952L50.2367 24.0232L49.2758 25.4917L49.6393 23.8595L48.6738 23.5928L49.8659 22.8524L50.2293 21.2256Z" fill="white"/>
<path d="M23.5378 45.0003C23.5378 44.987 23.5254 45.0003 23.5254 45.0003C23.513 44.987 23.5006 44.987 23.4883 44.9736L23.5378 45.0003Z" fill="#78E75A"/>
<path d="M23.8291 52.6665C23.8291 53.1839 23.4875 53.8238 23.0699 54.0824L22.4624 54.45L22.7661 56.7916L21.3614 55.9067L20.8299 55.4711L13.1481 60.1815C12.8824 60.3448 12.6546 60.3176 12.5154 60.1542C12.5407 60.1815 12.5661 60.2087 12.604 60.236L11.4651 59.5008C11.3258 59.4191 11.2499 59.2421 11.2372 58.9834L11.2246 51.8634C11.2246 51.346 11.5536 50.7062 11.9839 50.4475L21.9056 44.3485C22.108 44.2123 22.2979 44.2123 22.4371 44.294L23.4875 44.9747C23.4495 44.9611 23.4115 44.9611 23.3736 44.9611C23.4242 44.9611 23.4748 44.9747 23.5254 45.002C23.5254 45.002 23.5381 44.9884 23.5381 45.002C23.7026 45.07 23.8039 45.2606 23.8039 45.5465L23.8291 52.6665Z" fill="#78E75A"/>
<path d="M23.8291 52.6665C23.8291 53.1839 23.4875 53.8238 23.0699 54.0824L22.4624 54.45L22.7661 56.7916L21.3614 55.9067L20.8299 55.4711L13.1481 60.1815C12.8824 60.3448 12.6546 60.3176 12.5154 60.1542C12.5407 60.1815 12.5661 60.2087 12.604 60.236L11.4651 59.5008C11.3258 59.4191 11.2499 59.2421 11.2372 58.9834L11.2246 51.8634C11.2246 51.346 11.5536 50.7062 11.9839 50.4475L21.9056 44.3485C22.108 44.2123 22.2979 44.2123 22.4371 44.294L23.4875 44.9747L23.5381 45.002C23.7026 45.07 23.8039 45.2606 23.8039 45.5465L23.8291 52.6665Z" fill="#78E75A"/>
<path d="M22.7616 56.794L21.3595 55.9019L19.6016 54.4683L21.0037 55.3603L22.7616 56.794Z" fill="#5EC363"/>
<path d="M23.5868 45.0234C23.447 44.9308 23.2533 44.9424 23.0382 45.0697L13.1267 51.1703C12.7072 51.4249 12.3629 52.0729 12.3629 52.582L12.3845 59.7101C12.3845 59.9647 12.4705 60.1498 12.6104 60.2308L11.4632 59.5035C11.3234 59.4225 11.2481 59.2373 11.2373 58.9828L11.2266 51.8547C11.2266 51.3456 11.56 50.6975 11.9795 50.443L21.9018 44.3424C22.1062 44.2151 22.2998 44.2035 22.4397 44.2961L23.5868 45.0234Z" fill="#5EC363"/>
<path d="M23.0399 45.0739C23.4589 44.8137 23.8034 45.0249 23.8047 45.5427L23.8235 52.6654C23.8249 53.1832 23.4826 53.821 23.0637 54.0812L22.4662 54.4522L22.7613 56.7945L21.0034 55.3608L13.1488 60.1776C12.7299 60.4378 12.3854 60.2266 12.384 59.7087L12.3652 52.5861C12.3639 52.0682 12.7061 51.4305 13.1251 51.1703L23.0399 45.0739Z" fill="#78E75A"/>
<path d="M18.6408 48.4345C18.7823 48.3566 18.9723 48.3413 19.1237 48.6683C19.1346 48.6955 19.3429 49.2125 18.9312 50.78C18.9155 50.8387 18.8999 50.8973 18.8842 50.9609L20.7304 49.8143C20.9399 49.6841 21.1144 49.7862 21.1151 50.0452C21.1155 50.2016 21.0645 50.3801 20.9778 50.5368C20.895 50.691 20.7805 50.8257 20.6501 50.9067C20.9071 50.7471 21.1173 50.876 21.1181 51.1887C21.1185 51.3549 21.0635 51.531 20.9808 51.69C20.8941 51.8467 20.7796 51.9863 20.6492 52.0673C20.9101 51.9053 21.1203 52.0341 21.1212 52.3567C21.1215 52.5033 21.0705 52.6671 20.9956 52.8115C20.9168 52.9535 20.8102 53.0784 20.6916 53.1521L20.3952 53.3362C20.6323 53.1889 20.8267 53.308 20.8275 53.6012C20.8279 53.7527 20.7768 53.9166 20.702 54.061C20.6231 54.2029 20.5166 54.3278 20.398 54.4015L17.7414 56.0515C17.4686 56.2209 17.2034 56.273 16.9855 56.2028L16.8745 56.1641L16.8652 52.6554C16.9434 52.5726 18.4289 50.9989 18.4626 48.7607C18.4662 48.6391 18.5451 48.4939 18.6408 48.4345Z" fill="white"/>
<path d="M16.6668 52.5358C16.7736 52.4695 16.8648 52.5254 16.8651 52.6574L16.8749 56.3468C16.8752 56.4837 16.7846 56.6476 16.6778 56.7139L15.2744 57.5856C15.1637 57.6543 15.0765 57.6008 15.0761 57.464L15.0664 53.7745C15.0661 53.6426 15.1527 53.4762 15.2634 53.4074L16.6668 52.5358ZM15.9725 56.5157C16.1425 56.4101 16.2725 56.163 16.272 55.9577C16.2714 55.7525 16.1405 55.6674 15.9705 55.7729C15.8045 55.8761 15.6705 56.1257 15.6711 56.3309C15.6716 56.5362 15.8065 56.6188 15.9725 56.5157Z" fill="#4C5C75"/>
<path d="M15.9713 55.7715C16.1413 55.666 16.2722 55.7511 16.2728 55.9563C16.2733 56.1616 16.1433 56.4087 15.9733 56.5143C15.8073 56.6174 15.6724 56.5348 15.6719 56.3295C15.6713 56.1243 15.8053 55.8747 15.9713 55.7715Z" fill="white"/>
</g>
<defs>
<clipPath id="clip0_21_12111">
<rect width="64" height="64" fill="white"/>
</clipPath>
</defs>
</svg>
