<svg width="16" height="16" viewBox="0 0 16 16" fill="none" xmlns="http://www.w3.org/2000/svg">
<rect width="16" height="16" fill="white"/>
<path d="M4.70312 15.5H12.2031C12.5908 15.5 12.9062 15.1845 12.9062 14.7969V1.20312C12.9062 0.815469 12.5908 0.5 12.2031 0.5H4.70312C4.31547 0.5 4 0.815469 4 1.20312V14.7969C4 15.1845 4.31547 15.5 4.70312 15.5ZM4.46875 1.20312C4.46875 1.14096 4.49344 1.08135 4.5374 1.0374C4.58135 0.993443 4.64096 0.96875 4.70312 0.96875H12.2031C12.2653 0.96875 12.3249 0.993443 12.3689 1.0374C12.4128 1.08135 12.4375 1.14096 12.4375 1.20312V14.7969C12.4375 14.859 12.4128 14.9186 12.3689 14.9626C12.3249 15.0066 12.2653 15.0312 12.2031 15.0312H4.70312C4.64096 15.0312 4.58135 15.0066 4.5374 14.9626C4.49344 14.9186 4.46875 14.859 4.46875 14.7969V1.20312Z" fill="#606367"/>
<path d="M5.17188 13.1562H11.7344C11.7965 13.1562 11.8561 13.1316 11.9001 13.0876C11.9441 13.0436 11.9688 12.984 11.9688 12.9219V3.07812C11.9688 3.01596 11.9441 2.95635 11.9001 2.9124C11.8561 2.86844 11.7965 2.84375 11.7344 2.84375H5.17188C5.10971 2.84375 5.0501 2.86844 5.00615 2.9124C4.96219 2.95635 4.9375 3.01596 4.9375 3.07812V12.9219C4.9375 12.984 4.96219 13.0436 5.00615 13.0876C5.0501 13.1316 5.10971 13.1562 5.17188 13.1562ZM5.40625 3.3125H11.5V12.6875H5.40625V3.3125Z" fill="#606367"/>
<path d="M8.6875 14.5625C8.94638 14.5625 9.15625 14.3526 9.15625 14.0938C9.15625 13.8349 8.94638 13.625 8.6875 13.625C8.42862 13.625 8.21875 13.8349 8.21875 14.0938C8.21875 14.3526 8.42862 14.5625 8.6875 14.5625Z" fill="#606367"/>
<path d="M7.51562 2.375H9.39062C9.45279 2.375 9.5124 2.35031 9.55635 2.30635C9.60031 2.2624 9.625 2.20279 9.625 2.14062C9.625 2.07846 9.60031 2.01885 9.55635 1.9749C9.5124 1.93094 9.45279 1.90625 9.39062 1.90625H7.51562C7.45346 1.90625 7.39385 1.93094 7.3499 1.9749C7.30594 2.01885 7.28125 2.07846 7.28125 2.14062C7.28125 2.20279 7.30594 2.2624 7.3499 2.30635C7.39385 2.35031 7.45346 2.375 7.51562 2.375Z" fill="#606367"/>
</svg>
