<svg width="64" height="64" viewBox="0 0 64 64" fill="none" xmlns="http://www.w3.org/2000/svg">
<path d="M53.2622 53.8115H20.5492C18.5685 53.8115 16.9629 52.0988 16.9629 49.9861V3.82541C16.9628 1.71274 18.5685 0 20.5492 0H53.2622C55.2429 0 56.8485 1.71274 56.8485 3.82541V49.9861C56.8485 52.0989 55.2429 53.8115 53.2622 53.8115Z" fill="#FE646F"/>
<path d="M53.2621 0H49.6758C51.6565 0 53.2621 1.71274 53.2621 3.82541V49.9861C53.2621 52.0989 51.6564 53.8115 49.6758 53.8115H53.2621C55.2428 53.8115 56.8484 52.0988 56.8484 49.9861V3.82541C56.8484 1.71274 55.2428 0 53.2621 0Z" fill="#FD4755"/>
<path d="M21.7441 30.9873V5.61166C21.7441 5.32994 21.9582 5.10156 22.2224 5.10156H51.5879C51.8521 5.10156 52.0662 5.32994 52.0662 5.61166V30.9873C52.0662 31.269 51.8521 31.4974 51.5879 31.4974H22.2224C21.9582 31.4974 21.7441 31.269 21.7441 30.9873Z" fill="#F9F7F8"/>
<path d="M52.0682 38.7652H21.7462C21.2509 38.7652 20.8496 38.337 20.8496 37.8089C20.8496 37.2807 21.251 36.8525 21.7462 36.8525H52.0682C52.5634 36.8525 52.9647 37.2807 52.9647 37.8089C52.9647 38.337 52.5633 38.7652 52.0682 38.7652Z" fill="#FE99A0"/>
<path d="M52.0682 42.5928H21.7462C21.2509 42.5928 20.8496 42.1647 20.8496 41.6365C20.8496 41.1083 21.251 40.6802 21.7462 40.6802H52.0682C52.5634 40.6802 52.9647 41.1083 52.9647 41.6365C52.9647 42.1647 52.5633 42.5928 52.0682 42.5928Z" fill="#FE99A0"/>
<path d="M52.0682 46.4166H21.7462C21.2509 46.4166 20.8496 45.9884 20.8496 45.4602C20.8496 44.9321 21.251 44.5039 21.7462 44.5039H52.0682C52.5634 44.5039 52.9647 44.9321 52.9647 45.4602C52.9647 45.9884 52.5633 46.4166 52.0682 46.4166Z" fill="#FE99A0"/>
<path d="M44.2993 63.375H11.5863C9.60557 63.375 8 61.6623 8 59.5496V13.3889C8 11.2761 9.60569 9.56348 11.5863 9.56348H44.2993C46.28 9.56348 47.8856 11.2762 47.8856 13.3889V59.5496C47.8857 61.6623 46.28 63.375 44.2993 63.375Z" fill="#FFD15B"/>
<path d="M44.2992 9.56348H40.7129C42.6936 9.56348 44.2992 11.2762 44.2992 13.3889V59.5496C44.2992 61.6624 42.6935 63.375 40.7129 63.375H44.2992C46.2799 63.375 47.8855 61.6623 47.8855 59.5496V13.3889C47.8856 11.2761 46.2799 9.56348 44.2992 9.56348Z" fill="#FFC344"/>
<path d="M12.7812 40.5507V15.1751C12.7812 14.8934 12.9953 14.665 13.2595 14.665H42.625C42.8892 14.665 43.1033 14.8934 43.1033 15.1751V40.5507C43.1033 40.8325 42.8892 41.0608 42.625 41.0608H13.2595C12.9953 41.0607 12.7812 40.8323 12.7812 40.5507Z" fill="#F9F7F8"/>
<path d="M43.1053 48.3287H12.7833C12.288 48.3287 11.8867 47.9005 11.8867 47.3723C11.8867 46.8442 12.2881 46.416 12.7833 46.416H43.1053C43.6005 46.416 44.0018 46.8442 44.0018 47.3723C44.0018 47.9004 43.6005 48.3287 43.1053 48.3287Z" fill="#FFF5C6"/>
<path d="M43.1053 52.1519H12.7833C12.288 52.1519 11.8867 51.7238 11.8867 51.1956C11.8867 50.6674 12.2881 50.2393 12.7833 50.2393H43.1053C43.6005 50.2393 44.0018 50.6674 44.0018 51.1956C44.0018 51.7238 43.6005 52.1519 43.1053 52.1519Z" fill="#FFF5C6"/>
<path d="M43.1053 55.9795H12.7833C12.288 55.9795 11.8867 55.5514 11.8867 55.0232C11.8867 54.495 12.2881 54.0669 12.7833 54.0669H43.1053C43.6005 54.0669 44.0018 54.495 44.0018 55.0232C44.0018 55.5513 43.6005 55.9795 43.1053 55.9795Z" fill="#FFF5C6"/>
<path d="M35.9325 59.8033H12.7833C12.288 59.8033 11.8867 59.3751 11.8867 58.8469C11.8867 58.3188 12.2881 57.8906 12.7833 57.8906H35.9325C36.4278 57.8906 36.8291 58.3188 36.8291 58.8469C36.8292 59.3751 36.4278 59.8033 35.9325 59.8033Z" fill="#FFF5C6"/>
<path d="M29.2312 20.3028L30.658 23.3865C30.8673 23.8389 31.272 24.1526 31.7401 24.2251L34.9305 24.7196C36.1092 24.9023 36.5799 26.4475 35.727 27.3343L33.4184 29.7347C33.0797 30.0868 32.9251 30.5942 33.0051 31.0916L33.55 34.4809C33.7513 35.7332 32.5191 36.6881 31.4648 36.0968L28.6113 34.4966C28.1927 34.2618 27.6925 34.2618 27.2738 34.4966L24.4203 36.0968C23.366 36.6881 22.1338 35.7332 22.3352 34.4809L22.8801 31.0916C22.96 30.5943 22.8055 30.0868 22.4667 29.7347L20.1582 27.3343C19.3053 26.4475 19.7759 24.9023 20.9547 24.7196L24.1451 24.2251C24.6132 24.1526 25.0178 23.8389 25.2272 23.3865L26.6539 20.3028C27.1809 19.1634 28.7041 19.1634 29.2312 20.3028Z" fill="#FFD15B"/>
<path d="M35.7262 27.3334C36.5791 26.4465 36.1084 24.9013 34.9296 24.7186L31.7393 24.2241C31.2712 24.1516 30.8665 23.838 30.6572 23.3855L29.2304 20.3018C28.7032 19.1624 27.1802 19.1624 26.653 20.3018L25.9629 21.7934L26.7769 23.5528C27.1703 24.4029 27.9306 24.9922 28.8101 25.1285C31.025 25.4718 31.9095 28.3752 30.3067 30.0417C29.6702 30.7034 29.3799 31.6569 29.53 32.5913L29.9578 35.2511L31.464 36.0957C32.5184 36.687 33.7505 35.7319 33.5492 34.4797L33.0043 31.0905C32.9243 30.5932 33.0789 30.0857 33.4176 29.7336L35.7262 27.3334Z" fill="#FFC344"/>
</svg>
