<svg width="54" height="53" viewBox="0 0 54 53" fill="none" xmlns="http://www.w3.org/2000/svg">
<g clip-path="url(#clip0_156_29902)">
<path d="M26.1421 21.1176L24.0583 20.1415L21.8425 16.3682L23.267 12.9931L23.6508 12.4656C22.5821 12.4656 21.3892 12.4656 21.3892 12.4656L16.901 14.7165L16.8259 15.1486L16.9626 15.5782L16.6577 16.1157L15.7451 21.363L16.5141 21.5924L18.7514 24.6787L19.8195 25.8434H20.6027L23.3724 23.1223L26.3004 22.2518L26.774 21.7853L26.1421 21.1176Z" fill="#CE7BBC"/>
<path d="M16.4402 20.5722C16.4402 16.6364 19.4296 13.3989 23.2616 13.0061L23.2665 12.9944L24.3261 11.5383C23.0818 10.4917 21.4736 9.86585 19.7252 9.88931C18.1453 9.91051 16.6977 10.4618 15.5387 11.3699L16.0389 12.6778L16.9622 15.5794L15.5387 18.0888L13.4275 19.2986L12.8197 20.1432C12.813 20.1432 12.8065 20.1428 12.7998 20.1427V20.1439C12.8068 20.1439 12.8137 20.1443 12.8207 20.1443L13.243 20.6175L16.5105 21.5924C16.4655 21.2586 16.4402 20.9184 16.4402 20.5722Z" fill="#C464B0"/>
<path d="M37.7703 17.6103C37.7439 17.5312 37.3219 14.1285 37.3219 14.1285L38.0044 12.3842L35.2944 12.4666L31.1266 16.3692L30.3848 21.2238L30.9448 24.5526L33.7517 26.2887L40.3287 21.0659L40.731 20.1443C40.7594 20.1448 40.7879 20.145 40.8164 20.1453V20.1409C40.788 20.1415 40.76 20.1431 40.7316 20.1431C40.7318 20.1432 37.7967 17.6895 37.7703 17.6103Z" fill="#FFE02F"/>
<path d="M31.1287 20.5721C31.1287 16.7047 34.0158 13.5137 37.7519 13.0312L38.0347 12.3085L38.0559 11.3404C36.8489 10.4137 35.3365 9.86729 33.7014 9.88931C32.0115 9.91195 30.4725 10.5407 29.2767 11.5643L26.7783 21.7865L27.4833 22.4113L33.6396 26.2192C32.098 24.8271 31.1287 22.8129 31.1287 20.5721Z" fill="#FBC700"/>
<path d="M43.5556 20.7156L42.4697 20.9734L41.3091 21.5537L39.7923 23.5584L39.0273 25.9896V32.5533L39.7396 33.3446L40.2139 33.4956H46.4461C47.2555 33.4956 47.9116 32.8395 47.9116 32.0301V27.2916C47.9117 24.3495 46.1098 21.809 43.5556 20.7156Z" fill="#FF5CA8"/>
<path d="M39.1994 32.0302V27.2916C39.1994 24.3495 41.0013 21.8089 43.5555 20.7155C42.668 20.3356 41.6905 20.129 40.6652 20.1429C37.2732 20.1883 34.4799 22.6313 33.7822 25.827V26.2885L34.3803 28.5746V32.971L34.8607 33.4778C34.9318 33.4884 35.0039 33.4956 35.0779 33.4956H40.6648C39.8554 33.4956 39.1994 32.8395 39.1994 32.0302Z" fill="#FF3C98"/>
<path d="M19.8507 25.8419C19.3644 23.5044 17.7271 21.5764 15.5645 20.6813H14.562L12.188 22.8327L11.1066 25.4441L10.8164 26.8186V32.6439L11.5879 33.3444L12.2266 33.4954H18.534C18.608 33.4954 18.6802 33.4881 18.7513 33.4775L19.2574 32.5487V29.0668L20.1718 26.8188L19.8507 25.8419Z" fill="#73D578"/>
<path d="M11.1174 32.0301V27.3854C11.1174 24.3823 12.9473 21.769 15.5641 20.6815C14.6978 20.3229 13.7475 20.1295 12.7527 20.1429C8.82667 20.1955 5.7002 23.4591 5.7002 27.3855V32.0302C5.7002 32.8396 6.3563 33.4957 7.16562 33.4957H12.5828C11.7735 33.4956 11.1174 32.8395 11.1174 32.0301Z" fill="#00C63A"/>
<path d="M29.5201 22.2593H27.9082L24.3911 25.0218L23.2305 27.6243V35.2564L24.2812 36.483L25.2785 36.8296H33.2091C34.1209 36.8296 34.8601 36.0904 34.8601 35.1786V29.8398C34.8602 26.3612 32.625 23.3798 29.5201 22.2593Z" fill="#00C2FB"/>
<path d="M24.1682 35.1781V29.9451C24.1682 26.432 26.3908 23.392 29.5209 22.2587C28.6391 21.9405 27.6875 21.7718 26.6968 21.7852C22.2735 21.8446 18.751 25.5214 18.751 29.9451V35.1781C18.751 36.09 19.4901 36.8291 20.402 36.8291H25.8192C24.9073 36.8291 24.1682 36.0899 24.1682 35.1781Z" fill="#00ABF2"/>
<path d="M43.1663 11.1711H42.5488L40.7622 12.519L40.2275 14.7347L40.7622 17.2143L41.8893 19.008L43.1663 19.4979C44.603 18.6665 45.5704 17.114 45.5704 15.3345C45.5704 13.5551 44.603 12.0026 43.1663 11.1711Z" fill="#FFCEBE"/>
<path d="M40.7623 15.3342C40.7623 13.5548 41.7297 12.0023 43.1664 11.1708C42.459 10.7615 41.6384 10.526 40.7623 10.526C38.1068 10.526 35.9541 12.6787 35.9541 15.3342C35.9541 17.9898 38.1068 20.1424 40.7623 20.1424C41.6384 20.1424 42.459 19.907 43.1664 19.4976C41.7296 18.666 40.7623 17.1136 40.7623 15.3342Z" fill="#FFB1A0"/>
<path d="M36.2304 1.10364H35.5937L34.2748 2.65346L33.29 4.99232L33.6594 7.08497L35.3212 8.96663L36.2306 9.23047C37.6177 8.40804 38.5481 6.89652 38.5481 5.16705C38.5481 3.43759 37.6175 1.92607 36.2304 1.10364Z" fill="#FFCEBE"/>
<path d="M33.9127 5.16712C33.9127 3.43766 34.8431 1.92614 36.2302 1.10371C35.5258 0.686141 34.7042 0.445557 33.8261 0.445557C31.2184 0.445557 29.1045 2.55951 29.1045 5.16712C29.1045 7.77474 31.2184 9.88869 33.8261 9.88869C34.7042 9.88869 35.5258 9.64811 36.2302 9.23054C34.8431 8.408 33.9127 6.89659 33.9127 5.16712Z" fill="#FFB1A0"/>
<path d="M29.21 11.5144H28.4893L26.9418 12.9236C26.9418 12.9236 25.9394 15.1255 25.9043 15.3347C25.8692 15.5438 25.9043 17.8662 25.9043 17.8662L27.3639 20.5556L28.2608 21.1887L29.2101 21.2235C30.9955 20.3377 32.2232 18.4971 32.2232 16.3689C32.2231 14.2407 30.9954 12.4002 29.21 11.5144Z" fill="#FFCEBE"/>
<path d="M26.1969 16.369C26.1969 14.2408 27.4247 12.4003 29.21 11.5144C28.4855 11.1549 27.6696 10.9518 26.8059 10.9518C23.814 10.9518 21.3887 13.3772 21.3887 16.369C21.3887 19.3608 23.8141 21.7862 26.8059 21.7862C27.6696 21.7862 28.4855 21.5831 29.21 21.2236C27.4247 20.3378 26.1969 18.4972 26.1969 16.369Z" fill="#FFB1A0"/>
<path d="M22.2542 1.10364H21.8418L19.9778 2.75895L19.4502 4.95709V6.27596L20.5405 8.28073L21.279 8.96653L22.254 9.23037C23.6411 8.40793 24.5715 6.89642 24.5715 5.16695C24.5715 3.43748 23.6411 1.92607 22.2542 1.10364Z" fill="#FFCEBE"/>
<path d="M19.9372 5.16712C19.9372 3.43766 20.8676 1.92614 22.2547 1.10371C21.5503 0.686141 20.7286 0.445557 19.8505 0.445557C17.2429 0.445557 15.1289 2.55951 15.1289 5.16712C15.1289 7.77474 17.2429 9.88869 19.8505 9.88869C20.7286 9.88869 21.5502 9.64811 22.2546 9.23054C20.8676 8.408 19.9372 6.89659 19.9372 5.16712Z" fill="#FFB1A0"/>
<path d="M15.2534 11.1711H14.4853L13.2952 12.4662L12.5566 14.2864V16.1328L13.3216 18.1771L14.4163 19.4169L15.2534 19.4979C16.6901 18.6665 17.6575 17.114 17.6575 15.3345C17.6575 13.5551 16.6901 12.0026 15.2534 11.1711Z" fill="#FFCEBE"/>
<path d="M12.8502 15.3342C12.8502 13.5548 13.8176 12.0023 15.2543 11.1708C14.5469 10.7615 13.7263 10.526 12.8502 10.526C10.1947 10.526 8.04199 12.6787 8.04199 15.3342C8.04199 17.9898 10.1947 20.1424 12.8502 20.1424C13.7263 20.1424 14.5469 19.907 15.2543 19.4976C13.8176 18.666 12.8502 17.1136 12.8502 15.3342Z" fill="#FFB1A0"/>
<path d="M24.4472 44.439L23.9795 45.0285L24.4472 47.7465L26.4667 49.7058C26.4667 49.7058 28.4886 50.0995 28.5602 50.0995C28.6318 50.0995 30.1259 49.8132 30.1259 49.8132L30.557 49.4585L30.5532 49.4365C30.4884 49.0586 30.6138 48.6729 30.8883 48.4053L32.4026 46.9292C33.0942 46.2552 32.7125 45.0807 31.7569 44.9418L29.6642 44.6377C29.2848 44.5826 28.9567 44.3442 28.787 44.0004L27.8511 42.1041C27.4237 41.2381 26.1888 41.2381 25.7615 42.1041L24.8256 44.0004C24.7374 44.179 24.6059 44.3282 24.4472 44.439Z" fill="#FFE02F"/>
<path d="M30.5566 49.4585C30.092 49.6134 29.5955 49.6985 29.0788 49.6985C26.4995 49.6985 24.4086 47.6076 24.4086 45.0284C24.4086 44.8286 24.4227 44.6322 24.4469 44.439C24.3002 44.5415 24.1303 44.6111 23.9479 44.6377L21.8553 44.9417C20.8996 45.0806 20.5181 46.255 21.2095 46.929L22.7238 48.4051C22.9984 48.6727 23.1238 49.0584 23.0589 49.4363L22.7015 51.5205C22.5382 52.4723 23.5372 53.1981 24.392 52.7488L26.2638 51.7648C26.6032 51.5864 27.0087 51.5864 27.3482 51.7648L29.2199 52.7488C30.0747 53.1981 31.0737 52.4724 30.9105 51.5206L30.5566 49.4585Z" fill="#FBC700"/>
<path d="M37.8187 42.1609L37.4736 42.5957L37.8187 44.6008L39.3084 46.0461C39.3084 46.0461 40.7999 46.3365 40.8528 46.3365C40.9056 46.3365 42.0078 46.1253 42.0078 46.1253L42.3258 45.8637L42.323 45.8474C42.2752 45.5686 42.3677 45.2841 42.5702 45.0867L43.6873 43.9977C44.1974 43.5005 43.9159 42.6341 43.2109 42.5317L41.6671 42.3074C41.3872 42.2667 41.1452 42.0909 41.0199 41.8372L40.3295 40.4383C40.0143 39.7995 39.1032 39.7995 38.788 40.4383L38.0976 41.8372C38.0326 41.9692 37.9357 42.0792 37.8187 42.1609Z" fill="#FFE02F"/>
<path d="M42.3249 45.8643C41.9822 45.9786 41.6158 46.0414 41.2346 46.0414C39.3319 46.0414 37.7894 44.4989 37.7894 42.5961C37.7894 42.4488 37.7998 42.3038 37.8177 42.1614C37.7094 42.237 37.5842 42.2884 37.4496 42.3079L35.9058 42.5322C35.2008 42.6347 34.9193 43.501 35.4294 43.9983L36.5465 45.0872C36.7491 45.2847 36.8415 45.5692 36.7937 45.848L36.53 47.3855C36.4095 48.0877 37.1465 48.6231 37.777 48.2916L39.1577 47.5657C39.4082 47.4341 39.7073 47.4341 39.9576 47.5657L41.3384 48.2916C41.969 48.6232 42.7059 48.0877 42.5854 47.3855L42.3249 45.8643Z" fill="#FBC700"/>
<path d="M47.9369 38.1824L47.6504 38.5434L47.9369 40.2083L49.1738 41.4084C49.1738 41.4084 50.4123 41.6495 50.4561 41.6495C50.4999 41.6495 51.415 41.4742 51.415 41.4742L51.6791 41.2569L51.6767 41.2434C51.637 41.0119 51.7138 40.7757 51.882 40.6118L52.8095 39.7077C53.233 39.2949 52.9993 38.5755 52.414 38.4905L51.1322 38.3042C50.8998 38.2704 50.6988 38.1244 50.5949 37.9137L50.0216 36.7522C49.7598 36.2218 49.0035 36.2218 48.7417 36.7522L48.1684 37.9137C48.1146 38.0231 48.034 38.1146 47.9369 38.1824Z" fill="#FFE02F"/>
<path d="M51.6788 41.2572C51.3942 41.3521 51.0901 41.4042 50.7737 41.4042C49.1938 41.4042 47.9131 40.1236 47.9131 38.5436C47.9131 38.4213 47.9217 38.301 47.9365 38.1826C47.8466 38.2454 47.7426 38.2881 47.6309 38.3043L46.3491 38.4906C45.7638 38.5756 45.5301 39.295 45.9536 39.7079L46.8811 40.6119C47.0493 40.7759 47.1261 41.0121 47.0863 41.2436L46.8674 42.5202C46.7674 43.1032 47.3792 43.5478 47.9028 43.2726L49.0493 42.6698C49.2572 42.5606 49.5056 42.5606 49.7135 42.6698L50.86 43.2726C51.3836 43.5478 51.9954 43.1033 51.8955 42.5203L51.6788 41.2572Z" fill="#FBC700"/>
<path d="M12.3128 42.1609L11.9678 42.5957L12.3128 44.6008L13.8025 46.0461C13.8025 46.0461 15.2941 46.3365 15.3469 46.3365C15.3998 46.3365 16.5019 46.1253 16.5019 46.1253L16.8199 45.8637L16.8172 45.8474C16.7693 45.5686 16.8618 45.2841 17.0643 45.0867L18.1814 43.9977C18.6916 43.5005 18.41 42.6341 17.705 42.5317L16.1613 42.3074C15.8813 42.2667 15.6393 42.0909 15.5141 41.8372L14.8237 40.4383C14.5084 39.7995 13.5975 39.7995 13.2821 40.4383L12.5917 41.8372C12.5269 41.9692 12.4299 42.0792 12.3128 42.1609Z" fill="#FFE02F"/>
<path d="M16.82 45.8643C16.4773 45.9786 16.1109 46.0414 15.7297 46.0414C13.827 46.0414 12.2845 44.4989 12.2845 42.5961C12.2845 42.4488 12.2949 42.3038 12.3128 42.1614C12.2045 42.237 12.0793 42.2884 11.9447 42.3079L10.4009 42.5322C9.69596 42.6347 9.41441 43.501 9.92456 43.9983L11.0417 45.0872C11.2442 45.2847 11.3366 45.5692 11.2888 45.848L11.0251 47.3855C10.9046 48.0877 11.6416 48.6231 12.2721 48.2916L13.6529 47.5657C13.9033 47.4341 14.2024 47.4341 14.4528 47.5657L15.8335 48.2916C16.4641 48.6232 17.201 48.0877 17.0806 47.3855L16.82 45.8643Z" fill="#FBC700"/>
<path d="M2.78549 38.1824L2.49902 38.5434L2.78549 40.2083L4.02242 41.4084C4.02242 41.4084 5.26088 41.6495 5.30472 41.6495C5.34856 41.6495 6.26368 41.4742 6.26368 41.4742L6.52772 41.2569L6.52536 41.2434C6.48562 41.0119 6.56244 40.7757 6.73061 40.6118L7.65813 39.7077C8.08164 39.2949 7.84791 38.5755 7.26258 38.4905L5.9808 38.3042C5.7484 38.2704 5.54746 38.1244 5.4435 37.9137L4.87025 36.7522C4.60847 36.2218 3.8521 36.2218 3.59031 36.7522L3.01706 37.9137C2.96319 38.0231 2.88259 38.1146 2.78549 38.1824Z" fill="#FFE02F"/>
<path d="M6.52748 41.2572C6.24285 41.3521 5.93877 41.4042 5.62229 41.4042C4.04246 41.4042 2.76169 40.1236 2.76169 38.5436C2.76169 38.4213 2.7703 38.301 2.78515 38.1826C2.69522 38.2454 2.59127 38.2881 2.47953 38.3043L1.19774 38.4906C0.612408 38.5756 0.378685 39.295 0.802193 39.7079L1.72971 40.6119C1.89788 40.7759 1.9747 41.0121 1.93496 41.2436L1.71598 42.5202C1.61602 43.1032 2.22788 43.5478 2.75145 43.2726L3.89794 42.6698C4.10586 42.5606 4.35422 42.5606 4.56214 42.6698L5.70863 43.2726C6.2322 43.5478 6.84406 43.1033 6.74409 42.5203L6.52748 41.2572Z" fill="#FBC700"/>
</g>
<defs>
<clipPath id="clip0_156_29902">
<rect width="52.4391" height="52.4391" fill="white" transform="translate(0.585938 0.445557)"/>
</clipPath>
</defs>
</svg>
