<svg width="16" height="16" viewBox="0 0 16 16" fill="none" xmlns="http://www.w3.org/2000/svg">
<g clip-path="url(#clip0_1_43888)">
<path fill-rule="evenodd" clip-rule="evenodd" d="M12 1.5H4C3.86739 1.5 3.74021 1.55268 3.64645 1.64645C3.55268 1.74021 3.5 1.86739 3.5 2V3H12.5V2C12.5 1.86739 12.4473 1.74021 12.3536 1.64645C12.2598 1.55268 12.1326 1.5 12 1.5ZM12.5 4.5H3.5V14C3.5 14.1326 3.55268 14.2598 3.64645 14.3536C3.74021 14.4473 3.86739 14.5 4 14.5H12C12.1326 14.5 12.2598 14.4473 12.3536 14.3536C12.4473 14.2598 12.5 14.1326 12.5 14V4.5ZM4 0C3.46957 0 2.96086 0.210714 2.58579 0.585786C2.21071 0.960859 2 1.46957 2 2V14C2 14.5304 2.21071 15.0391 2.58579 15.4142C2.96086 15.7893 3.46957 16 4 16H12C12.5304 16 13.0391 15.7893 13.4142 15.4142C13.7893 15.0391 14 14.5304 14 14V2C14 1.46957 13.7893 0.960859 13.4142 0.585786C13.0391 0.210714 12.5304 0 12 0L4 0ZM5 12.25C5 12.0511 5.07902 11.8603 5.21967 11.7197C5.36032 11.579 5.55109 11.5 5.75 11.5H10.5C10.6989 11.5 10.8897 11.579 11.0303 11.7197C11.171 11.8603 11.25 12.0511 11.25 12.25C11.25 12.4489 11.171 12.6397 11.0303 12.7803C10.8897 12.921 10.6989 13 10.5 13H5.75C5.55109 13 5.36032 12.921 5.21967 12.7803C5.07902 12.6397 5 12.4489 5 12.25Z" fill="black" fill-opacity="0.5"/>
</g>
<defs>
<clipPath id="clip0_1_43888">
<rect width="16" height="16" fill="white"/>
</clipPath>
</defs>
</svg>
