<svg width="64" height="64" viewBox="0 0 64 64" fill="none" xmlns="http://www.w3.org/2000/svg">
<g clip-path="url(#clip0_21_12082)">
<path d="M15.7012 29.7158H22.3003V44.6056H15.7012V29.7158Z" fill="#6D81D5"/>
<path d="M20.6474 29.7158H18.7409H15.7012V35.5354C16.5684 36.9726 17.5907 38.2924 18.7409 39.471V44.605H22.3005V29.7158H20.6474Z" fill="#5169CD"/>
<path d="M19.0005 53.0033C21.9714 53.0033 24.3799 50.4316 24.3799 47.2592C24.3799 44.0869 21.9714 41.5151 19.0005 41.5151C16.0295 41.5151 13.6211 44.0869 13.6211 47.2592C13.6211 50.4316 16.0295 53.0033 19.0005 53.0033Z" fill="#FDDD45"/>
<path d="M24.3788 47.2593C24.3788 50.4323 21.9709 53.0033 18.9995 53.0033C18.5411 53.0033 18.0968 52.942 17.6719 52.8269C20.0003 52.1959 21.7236 49.9426 21.7236 47.2592C21.7236 44.5768 20.0003 42.3225 17.6719 41.6916C18.0968 41.5765 18.5411 41.5151 18.9995 41.5151C21.9709 41.5153 24.3788 44.0874 24.3788 47.2593Z" fill="#F8C52D"/>
<path d="M35.4662 37.9829H30.3117C30.1682 39.7059 30.0556 55.6299 25.498 60.4965H40.2799C35.7223 55.6299 35.6097 39.7059 35.4662 37.9829Z" fill="#FCA62F"/>
<path d="M40.2808 60.4964C35.7227 55.6305 35.6098 39.7069 35.4665 37.9829L30.3122 37.9834C30.2573 38.6426 30.2066 41.3807 29.9102 44.7824C30.6727 44.9014 31.4492 44.9747 32.2367 45.0011C32.7258 50.4628 33.8524 57.5318 36.6295 60.4964H40.2808Z" fill="#F98824"/>
<path d="M37.957 21.5265L22.1106 26.0605L17.1999 6.49108C17.0264 5.79961 17.4106 5.08888 18.0581 4.90363L31.5596 1.04058C32.2072 0.855321 32.8728 1.26559 33.0463 1.95705L37.957 21.5265Z" fill="#27D1B3"/>
<path d="M33.0463 1.95716L37.9573 21.5273L33.9367 22.6777L29.0257 3.10748C28.8523 2.41638 28.1863 2.00575 27.5391 2.191L31.5597 1.04069C32.208 0.855063 32.8729 1.26594 33.0463 1.95716Z" fill="#20B69F"/>
<path d="M34.339 22.5617L25.727 25.0257L23.806 17.3709C23.7192 17.0252 23.9113 16.6698 24.2351 16.5771L31.6746 14.4485C31.9984 14.3559 32.3313 14.561 32.418 14.9067L34.339 22.5617Z" fill="#FCA62F"/>
<path d="M32.4192 14.9078L34.34 22.5626L30.7228 23.5976L28.802 15.9428C28.715 15.596 28.3823 15.3919 28.0586 15.4846L31.6758 14.4496C31.9995 14.3569 32.3321 14.561 32.4192 14.9078Z" fill="#F98824"/>
<path d="M13.7079 19.6973C13.0037 19.6973 12.4525 20.3349 12.4966 21.0853C13.167 32.488 22.0403 41.5147 32.8882 41.5147C43.736 41.5147 52.6093 32.488 53.2797 21.0853C53.3238 20.3349 52.7728 19.6973 52.0684 19.6973H13.7079Z" fill="#F8C52D"/>
<path d="M53.2796 21.0855C52.6084 32.488 43.7349 41.5146 32.8875 41.5146C31.8557 41.5146 30.8421 41.4329 29.8516 41.2761C39.2761 39.7751 46.5996 31.4031 47.2052 21.0855C47.2501 20.335 46.6991 19.6973 45.995 19.6973H52.068C52.7722 19.6973 53.3233 20.335 53.2796 21.0855Z" fill="#FCA62F"/>
<path d="M36.5352 19.6986V16.9209C36.5352 15.9991 37.2349 15.252 38.0981 15.252H43.5814C44.4446 15.252 45.1443 15.9991 45.1443 16.9209V19.6986H36.5352Z" fill="#BE0C4A"/>
<path d="M40.5083 16.9209V31.8828H47.417V16.9209C47.417 15.9991 46.7173 15.252 45.8541 15.252H38.9453C39.8085 15.2518 40.5083 15.9991 40.5083 16.9209Z" fill="#FB3A82"/>
<path d="M47.4171 16.9216V31.883H43.6905V16.9216C43.6905 16 42.9901 15.2534 42.127 15.2534H45.8535C46.7166 15.2534 47.4171 16.0001 47.4171 16.9216Z" fill="#E01058"/>
<path d="M43.9611 44.3826C48.044 44.3826 51.3538 40.8484 51.3538 36.4887C51.3538 32.129 48.044 28.5947 43.9611 28.5947C39.8782 28.5947 36.5684 32.129 36.5684 36.4887C36.5684 40.8484 39.8782 44.3826 43.9611 44.3826Z" fill="#FDDD45"/>
<path d="M51.3538 36.4885C51.3538 40.8488 48.0447 44.3822 43.9612 44.3822C43.3312 44.3822 42.7206 44.2979 42.1367 44.1399C45.3365 43.2728 47.7049 40.1761 47.7049 36.4885C47.7049 32.8022 45.3366 29.7043 42.1367 28.8372C42.7206 28.679 43.3312 28.5947 43.9612 28.5947C48.0447 28.5948 51.3538 32.1295 51.3538 36.4885Z" fill="#F8C52D"/>
<path d="M20.5137 59.4756H45.2632V63.8136H20.5137V59.4756Z" fill="#FDDD45"/>
<path d="M23.1015 63.8117H19.001C18.3306 63.8117 17.7871 63.2313 17.7871 62.5155V58.137C17.7871 57.4211 18.3306 56.8408 19.001 56.8408H23.1015C23.7719 56.8408 24.3154 57.4211 24.3154 58.137V62.5155C24.3154 63.2313 23.7719 63.8117 23.1015 63.8117Z" fill="#F8C52D"/>
<path d="M24.3163 58.137V62.5155C24.3163 63.231 23.7724 63.8117 23.1024 63.8117H19.7715C20.4416 63.8117 20.9854 63.231 20.9854 62.5155V58.137C20.9854 57.4215 20.4416 56.8408 19.7715 56.8408H23.1024C23.7724 56.8408 24.3163 57.4215 24.3163 58.137Z" fill="#FCA62F"/>
<path d="M46.7753 63.8117H42.6748C42.0044 63.8117 41.4609 63.2313 41.4609 62.5155V58.137C41.4609 57.4211 42.0044 56.8408 42.6748 56.8408H46.7753C47.4457 56.8408 47.9892 57.4211 47.9892 58.137V62.5155C47.9892 63.2313 47.4457 63.8117 46.7753 63.8117Z" fill="#F8C52D"/>
<path d="M47.9901 58.137V62.5155C47.9901 63.231 47.4463 63.8117 46.7762 63.8117H43.4453C44.1154 63.8117 44.6592 63.231 44.6592 62.5155V58.137C44.6592 57.4215 44.1154 56.8408 43.4453 56.8408H46.7762C47.4463 56.8408 47.9901 57.4215 47.9901 58.137Z" fill="#FCA62F"/>
<path d="M13.9659 12.2551C12.9508 11.6623 12.116 10.7709 11.5609 9.68699C11.4105 9.3934 11.0156 9.3934 10.8652 9.68699C10.31 10.7709 9.47524 11.6623 8.46012 12.2551C8.18517 12.4157 8.18517 12.8373 8.46012 12.9979C9.47524 13.5908 10.31 14.4821 10.8652 15.566C11.0156 15.8596 11.4105 15.8596 11.5609 15.566C12.116 14.4821 12.9508 13.5908 13.9659 12.9979C14.2408 12.8375 14.2408 12.4157 13.9659 12.2551Z" fill="#FDDD45"/>
<path d="M56.3702 13.0148C55.3551 12.422 54.5203 11.5307 53.9652 10.4468C53.8148 10.1532 53.4199 10.1532 53.2694 10.4468C52.7143 11.5307 51.8795 12.422 50.8644 13.0148C50.5895 13.1754 50.5895 13.5971 50.8644 13.7577C51.8795 14.3505 52.7143 15.2419 53.2694 16.3258C53.4199 16.6194 53.8148 16.6194 53.9652 16.3258C54.5203 15.2419 55.3551 14.3505 56.3702 13.7577C56.6451 13.5972 56.6451 13.1754 56.3702 13.0148Z" fill="#FDDD45"/>
<path d="M47.3038 6.72187C46.2887 6.12905 45.4539 5.23773 44.8987 4.15379C44.7483 3.8602 44.3534 3.8602 44.203 4.15379C43.6479 5.23773 42.8131 6.12905 41.798 6.72187C41.5231 6.88247 41.5231 7.30415 41.798 7.46474C42.8131 8.05757 43.6479 8.94889 44.203 10.0328C44.3534 10.3264 44.7483 10.3264 44.8987 10.0328C45.4539 8.94889 46.2887 8.05757 47.3038 7.46474C47.5787 7.30427 47.5787 6.88247 47.3038 6.72187Z" fill="#FDDD45"/>
<path d="M26.5933 11.0372C26.2013 11.0372 25.8426 10.7578 25.7364 10.3344L25.2197 8.27538C24.9376 8.35881 24.6229 8.29195 24.3888 8.0678C24.0238 7.71826 23.9932 7.11893 24.3206 6.72928L25.0351 5.87857C25.2526 5.61957 25.5856 5.50854 25.9024 5.58952C26.2193 5.67037 26.4692 5.9301 26.5535 6.26614L27.4513 9.84382C27.5782 10.3495 27.2971 10.8694 26.8236 11.0048C26.7466 11.0266 26.6693 11.0372 26.5933 11.0372Z" fill="#FDDD45"/>
<path d="M29.0182 12.6374C28.6263 12.6374 28.2676 12.358 28.1613 11.9345C28.0345 11.4288 28.3155 10.9091 28.7891 10.7735C29.0981 10.6852 29.3562 10.4735 29.5161 10.1779C29.676 9.88207 29.7185 9.53757 29.6357 9.20766C29.5088 8.70195 29.7899 8.18224 30.2634 8.04667C30.7372 7.91123 31.2238 8.21132 31.3506 8.71704C31.5562 9.5361 31.4507 10.3915 31.0536 11.1258C30.6567 11.86 30.0155 12.3854 29.2485 12.6049C29.1716 12.6268 29.0943 12.6374 29.0182 12.6374Z" fill="#FDDD45"/>
<path d="M24.698 13.7942C24.1828 13.7942 23.6745 13.6499 23.2164 13.3676C22.5288 12.9437 22.0368 12.2591 21.8312 11.44C21.7044 10.9343 21.9854 10.4146 22.459 10.2791C22.9323 10.1437 23.4195 10.4437 23.5463 10.9494C23.629 11.2793 23.8272 11.555 24.1041 11.7257C24.3811 11.8964 24.7038 11.9418 25.0127 11.8534C25.4861 11.7182 25.9731 12.018 26.1 12.5236C26.2269 13.0293 25.9458 13.5492 25.4722 13.6846C25.2162 13.7578 24.9562 13.7942 24.698 13.7942Z" fill="#FDDD45"/>
<path d="M29.7651 7.01143C29.3731 7.01143 29.0144 6.7322 28.9081 6.30868L28.8098 5.9167C28.6828 5.41098 28.9639 4.89116 29.4375 4.75571C29.9107 4.62014 30.3978 4.92023 30.5248 5.42595L30.6231 5.81793C30.7501 6.32365 30.469 6.84348 29.9954 6.97892C29.9184 7.00088 29.8411 7.01143 29.7651 7.01143Z" fill="#FDDD45"/>
<path d="M21.9603 9.24368C21.5684 9.24368 21.2096 8.96432 21.1034 8.5408L21.0051 8.14882C20.8782 7.6431 21.1594 7.1234 21.6328 6.98795C22.1061 6.85288 22.5932 7.1526 22.72 7.65832L22.8184 8.0503C22.9452 8.55602 22.6641 9.07572 22.1906 9.21117C22.1137 9.23325 22.0364 9.24368 21.9603 9.24368Z" fill="#FDDD45"/>
<path d="M43.9613 39.3905C43.471 39.3905 43.0736 38.9662 43.0736 38.4427V36.6049C42.8117 36.5802 42.5627 36.432 42.4079 36.1785C42.1401 35.74 42.2559 35.1526 42.6666 34.8667L43.4764 34.3028C43.7494 34.1128 44.0977 34.0977 44.384 34.2633C44.6705 34.4291 44.8489 34.7489 44.8489 35.0969V38.4428C44.849 38.9661 44.4517 39.3905 43.9613 39.3905Z" fill="#F98824"/>
<path d="M45.7256 41.3924C45.2352 41.3924 44.8379 40.9681 44.8379 40.4446C44.8379 39.9211 45.2353 39.4967 45.7256 39.4967C46.2747 39.4967 46.7214 39.0197 46.7214 38.4332C46.7214 37.9097 47.1188 37.4854 47.6091 37.4854C48.0994 37.4854 48.4968 37.9097 48.4968 38.4332C48.4969 40.0648 47.2537 41.3924 45.7256 41.3924Z" fill="#F98824"/>
<path d="M45.2919 33.4425C45.0647 33.4425 44.8375 33.3499 44.6641 33.1648C44.476 32.9639 44.226 32.8534 43.96 32.8534C43.694 32.8534 43.4439 32.9639 43.2558 33.1649C42.9091 33.5351 42.3471 33.5351 42.0002 33.1649C41.6536 32.7948 41.6536 32.1946 42.0002 31.8243C42.5237 31.2653 43.2197 30.9575 43.9599 30.9575C44.7001 30.9575 45.3961 31.2653 45.9195 31.8243C46.2661 32.1946 46.2661 32.7946 45.9194 33.1649C45.7462 33.35 45.519 33.4425 45.2919 33.4425Z" fill="#F98824"/>
<path d="M42.1952 41.3924C40.667 41.3924 39.4238 40.065 39.4238 38.4332C39.4238 37.9097 39.8213 37.4854 40.3115 37.4854C40.8018 37.4854 41.1992 37.9097 41.1992 38.4332C41.1992 39.0196 41.6459 39.4966 42.195 39.4966C42.6854 39.4966 43.0827 39.9209 43.0827 40.4444C43.0827 40.9679 42.6854 41.3924 42.1952 41.3924Z" fill="#F98824"/>
<path d="M47.6104 36.1504C47.12 36.1504 46.7227 35.726 46.7227 35.2025V34.8361C46.7227 34.3126 47.1201 33.8882 47.6104 33.8882C48.1006 33.8882 48.4981 34.3126 48.4981 34.8361V35.2025C48.4981 35.726 48.1006 36.1504 47.6104 36.1504Z" fill="#F98824"/>
<path d="M40.3116 36.1505C39.8214 36.1505 39.4241 35.7264 39.4239 35.2029L39.4238 34.8364C39.4237 34.3129 39.821 33.8884 40.3112 33.8882H40.3115C40.8017 33.8882 41.1991 34.3123 41.1992 34.8358L41.1993 35.2023C41.1995 35.7258 40.8021 36.1503 40.312 36.1505H40.3116Z" fill="#F98824"/>
<path d="M19.0003 49.8804C18.51 49.8804 18.1126 49.456 18.1126 48.9325V47.0949C17.8507 47.0701 17.6018 46.9219 17.447 46.6684C17.1792 46.2299 17.295 45.6426 17.7056 45.3565L18.5154 44.7925C18.7883 44.6026 19.1367 44.5874 19.4232 44.753C19.7097 44.9188 19.8881 45.2386 19.8881 45.5866V48.9325C19.888 49.456 19.4906 49.8804 19.0003 49.8804Z" fill="#F98824"/>
</g>
<defs>
<clipPath id="clip0_21_12082">
<rect width="58.8275" height="62.8158" fill="white" transform="translate(3 1)"/>
</clipPath>
</defs>
</svg>
